%TF.GenerationSoftware,KiCad,Pcbnew,9.0.6*%
%TF.CreationDate,2025-11-16T23:30:30+01:00*%
%TF.ProjectId,ASK,41534b2e-6b69-4636-9164-5f7063625858,rev?*%
%TF.SameCoordinates,Original*%
%TF.FileFunction,Copper,L2,Inr*%
%TF.FilePolarity,Positive*%
%FSLAX46Y46*%
G04 Gerber Fmt 4.6, Leading zero omitted, Abs format (unit mm)*
G04 Created by KiCad (PCBNEW 9.0.6) date 2025-11-16 23:30:30*
%MOMM*%
%LPD*%
G01*
G04 APERTURE LIST*
%TA.AperFunction,ComponentPad*%
%ADD10C,4.700000*%
%TD*%
%TA.AperFunction,ComponentPad*%
%ADD11C,1.244600*%
%TD*%
%TA.AperFunction,ComponentPad*%
%ADD12R,1.192000X1.192000*%
%TD*%
%TA.AperFunction,ComponentPad*%
%ADD13C,1.192000*%
%TD*%
%TA.AperFunction,ComponentPad*%
%ADD14R,1.500000X1.500000*%
%TD*%
%TA.AperFunction,ComponentPad*%
%ADD15C,1.500000*%
%TD*%
%TA.AperFunction,ComponentPad*%
%ADD16R,1.700000X1.700000*%
%TD*%
%TA.AperFunction,ComponentPad*%
%ADD17C,1.700000*%
%TD*%
%TA.AperFunction,ComponentPad*%
%ADD18C,2.100000*%
%TD*%
%TA.AperFunction,ComponentPad*%
%ADD19C,2.250000*%
%TD*%
%TA.AperFunction,ViaPad*%
%ADD20C,0.400000*%
%TD*%
%TA.AperFunction,Conductor*%
%ADD21C,0.275000*%
%TD*%
G04 APERTURE END LIST*
D10*
%TO.N,GND*%
%TO.C,H9*%
X25000000Y-115000000D03*
%TD*%
%TO.N,GND*%
%TO.C,H6*%
X55000000Y-65000000D03*
%TD*%
%TO.N,GND*%
%TO.C,H8*%
X55000000Y-90000000D03*
%TD*%
%TO.N,GND*%
%TO.C,H5*%
X25000000Y-65000000D03*
%TD*%
%TO.N,GND*%
%TO.C,H1*%
X25000000Y-40000000D03*
%TD*%
%TO.N,GND*%
%TO.C,H10*%
X55000000Y-115000000D03*
%TD*%
%TO.N,GND*%
%TO.C,H2*%
X55000000Y-40000000D03*
%TD*%
%TO.N,GND*%
%TO.C,H7*%
X25000000Y-90000000D03*
%TD*%
%TO.N,GND*%
%TO.C,H4*%
X55000000Y-55000000D03*
%TD*%
D11*
%TO.N,Net-(C2-Pad2)*%
%TO.C,LASER1*%
X41270000Y-40000000D03*
%TO.N,GND*%
X40000000Y-41270000D03*
%TO.N,Net-(L2-Pad2)*%
X38730000Y-40000000D03*
%TD*%
D10*
%TO.N,GND*%
%TO.C,H3*%
X25000000Y-55000000D03*
%TD*%
D12*
%TO.N,GND*%
%TO.C,D3*%
X45000000Y-100000000D03*
D13*
%TO.N,Net-(D3-K)*%
X46270000Y-101270000D03*
%TO.N,Net-(D3-A)*%
X45000000Y-102540000D03*
%TD*%
D14*
%TO.N,INTERLOCK-A*%
%TO.C,J3*%
X34460000Y-28075000D03*
D15*
%TO.N,Feeback*%
X35890000Y-30915000D03*
%TO.N,GND*%
X37260000Y-28075000D03*
X38630000Y-30915000D03*
%TO.N,INTERLOCK-B*%
X40000000Y-28075000D03*
%TO.N,unconnected-(J3-Pad6)*%
X41370000Y-30915000D03*
%TO.N,unconnected-(J3-Pad7)*%
X42740000Y-28075000D03*
%TO.N,LS-BIAS*%
X44110000Y-30915000D03*
%TO.N,unconnected-(J3-Pad9)*%
X45480000Y-28075000D03*
%TD*%
D16*
%TO.N,INTERLOCK-A*%
%TO.C,J5*%
X32500000Y-46000000D03*
D17*
%TO.N,INTERLOCK-B*%
X32500000Y-48540000D03*
%TD*%
D18*
%TO.N,Net-(J1-In)*%
%TO.C,J1*%
X49070000Y-47800000D03*
D19*
%TO.N,GND*%
X49070000Y-51406245D03*
X45463755Y-47800000D03*
X49070000Y-44193755D03*
X52676245Y-47800000D03*
%TD*%
D18*
%TO.N,Net-(J2-In)*%
%TO.C,J2*%
X40000000Y-114000000D03*
D19*
%TO.N,GND*%
X42550000Y-116550000D03*
X37450000Y-116550000D03*
X37450000Y-111450000D03*
X42550000Y-111450000D03*
%TD*%
D16*
%TO.N,GND*%
%TO.C,J6*%
X25000000Y-107500000D03*
D17*
%TO.N,+5V*%
X25000000Y-104960000D03*
%TO.N,I2C_SDA*%
X25000000Y-102420000D03*
%TO.N,I2C_SCL*%
X25000000Y-99880000D03*
%TD*%
D16*
%TO.N,Net-(J4-Pin_1)*%
%TO.C,J4*%
X55000000Y-100000000D03*
D17*
%TO.N,GND*%
X55000000Y-102540000D03*
%TO.N,Net-(J4-Pin_1)*%
X55000000Y-105080000D03*
%TD*%
D20*
%TO.N,GND*%
X41800000Y-93800000D03*
X22950000Y-53325000D03*
X39821331Y-36946936D03*
X32000000Y-23000000D03*
X38722502Y-109457843D03*
X47114670Y-46905330D03*
X39950000Y-100500000D03*
X40000000Y-115500000D03*
X39450000Y-102400000D03*
X39100000Y-112350000D03*
X23000000Y-52000000D03*
X32000000Y-117000000D03*
X23000000Y-74000000D03*
X37715764Y-40999160D03*
X35174293Y-72974293D03*
X42000000Y-87000000D03*
X42300000Y-98100000D03*
X40750000Y-110550000D03*
X23000000Y-94000000D03*
X37635038Y-41939092D03*
X41137730Y-41341437D03*
X23000000Y-112000000D03*
X28000000Y-117000000D03*
X36000000Y-91000000D03*
X52000000Y-23000000D03*
X23000000Y-24000000D03*
X26950000Y-116975000D03*
X41650000Y-37425000D03*
X40502049Y-109466851D03*
X23000000Y-30000000D03*
X39000000Y-117025000D03*
X48000000Y-23000000D03*
X42300000Y-97300000D03*
X48000000Y-117000000D03*
X39450000Y-106700000D03*
X47725000Y-45400000D03*
X39449774Y-107556632D03*
X49116176Y-63000000D03*
X57000000Y-95592592D03*
X46000000Y-23000000D03*
X23000000Y-80000000D03*
X47200000Y-101900000D03*
X46050000Y-43575000D03*
X39500000Y-103600000D03*
X48200000Y-90825000D03*
X43575000Y-76250000D03*
X57000000Y-30000000D03*
X39808866Y-108423525D03*
X53225000Y-57000000D03*
X41462392Y-113666217D03*
X50487860Y-46828757D03*
X39150000Y-96750000D03*
X41113373Y-42848425D03*
X23000000Y-28000000D03*
X45300000Y-95100000D03*
X35600000Y-100400000D03*
X38975000Y-41100000D03*
X48175330Y-45844670D03*
X42250000Y-39175000D03*
X56975000Y-86900000D03*
X34000000Y-23000000D03*
X37700000Y-101400000D03*
X52166820Y-80563940D03*
X39000000Y-87000000D03*
X36000000Y-90000000D03*
X57000000Y-73185185D03*
X38000000Y-23000000D03*
X37925000Y-92000000D03*
X36320000Y-40750000D03*
X53225000Y-117025000D03*
X43000000Y-39550000D03*
X38000000Y-102400000D03*
X44998529Y-63000000D03*
X41000000Y-90000000D03*
X57000000Y-93555555D03*
X23000000Y-34000000D03*
X41950000Y-41650000D03*
X23000000Y-44000000D03*
X57000000Y-85407407D03*
X42250000Y-68950000D03*
X47200000Y-57000000D03*
X44000000Y-91000000D03*
X39275000Y-111600000D03*
X57000000Y-77259259D03*
X45400000Y-94100000D03*
X43450000Y-101800000D03*
X57000000Y-53200000D03*
X42907169Y-76957169D03*
X37700000Y-100300000D03*
X42225000Y-72025000D03*
X37950226Y-107593438D03*
X42150000Y-89000000D03*
X42000000Y-23000000D03*
X51709999Y-79969238D03*
X23000000Y-104000000D03*
X23000000Y-100000000D03*
X40850000Y-96975000D03*
X40675000Y-95225000D03*
X46975000Y-99550000D03*
X40000000Y-90000000D03*
X37925000Y-91000000D03*
X23000000Y-32000000D03*
X40800000Y-98650000D03*
X51400000Y-57000000D03*
X38800000Y-100500000D03*
X38827256Y-114935238D03*
X42364962Y-38060908D03*
X40773524Y-37041151D03*
X57000000Y-75300000D03*
X23000000Y-96000000D03*
X23000000Y-48000000D03*
X28000000Y-23000000D03*
X44000000Y-87000000D03*
X53625000Y-72850000D03*
X48100000Y-100450000D03*
X40700000Y-93950000D03*
X44100000Y-103400000D03*
X30400000Y-91900000D03*
X57000000Y-109851851D03*
X43000000Y-86000000D03*
X46700000Y-46475000D03*
X41172748Y-114935234D03*
X57000000Y-79296296D03*
X44000000Y-89000000D03*
X50250000Y-86100000D03*
X48849293Y-67799293D03*
X42325000Y-96650000D03*
X45855331Y-76130331D03*
X41754871Y-114400533D03*
X32500000Y-87100000D03*
X37925000Y-88000000D03*
X48063917Y-49190564D03*
X32645588Y-63000000D03*
X48825000Y-49400000D03*
X47500000Y-84300000D03*
X41449293Y-67799293D03*
X44441013Y-101132741D03*
X40900000Y-57000000D03*
X38060908Y-37635038D03*
X57000000Y-69111111D03*
X39150000Y-94000000D03*
X42925000Y-42625000D03*
X22975000Y-38075000D03*
X44117831Y-77867831D03*
X37000000Y-92000000D03*
X46600000Y-44175000D03*
X40350000Y-69500000D03*
X44980331Y-77005331D03*
X23000000Y-78000000D03*
X46674293Y-73374293D03*
X39774293Y-74874293D03*
X36000000Y-86000000D03*
X39150000Y-92350000D03*
X57000000Y-88075000D03*
X42850000Y-94875000D03*
X49051679Y-46159828D03*
X38154106Y-108601135D03*
X46956462Y-66117124D03*
X56950000Y-104025000D03*
X38537607Y-113666222D03*
X45200000Y-101500000D03*
X37000000Y-86000000D03*
X40850000Y-101525000D03*
X44674293Y-73374293D03*
X57000000Y-50000000D03*
X36000000Y-89000000D03*
X39350000Y-42250000D03*
X34000000Y-117000000D03*
X27100000Y-62975000D03*
X44000000Y-75800000D03*
X57000000Y-28000000D03*
X35100000Y-40775000D03*
X41000000Y-86000000D03*
X43600000Y-97400000D03*
X44975000Y-44800000D03*
X57000000Y-26000000D03*
X50753186Y-48390706D03*
X28527941Y-63000000D03*
X43504555Y-43295215D03*
X50000000Y-23000000D03*
X36950000Y-94000000D03*
X45700000Y-103500000D03*
X57000000Y-24000000D03*
X34600000Y-57000000D03*
X42150000Y-94600000D03*
X43500000Y-41200000D03*
X48849293Y-69899293D03*
X48550000Y-98125000D03*
X57000000Y-91825000D03*
X43000000Y-89000000D03*
X40825000Y-97825000D03*
X23025000Y-92200000D03*
X57000000Y-99925000D03*
X43000000Y-90000000D03*
X38592703Y-112877719D03*
X40074293Y-67774293D03*
X41575000Y-96300000D03*
X51825000Y-86100000D03*
X57000000Y-81333333D03*
X37925000Y-90000000D03*
X40000000Y-39300000D03*
X43000000Y-57000000D03*
X30000000Y-117000000D03*
X30000000Y-23000000D03*
X43000000Y-87000000D03*
X51800000Y-71150000D03*
X40500000Y-102400000D03*
X57025000Y-42325000D03*
X35700000Y-40775000D03*
X42150000Y-91000000D03*
X23000000Y-98000000D03*
X57000000Y-105777777D03*
X30586765Y-63000000D03*
X42400181Y-99131368D03*
X36320000Y-39250000D03*
X23000000Y-110000000D03*
X23000000Y-86000000D03*
X40880882Y-63000000D03*
X57000000Y-34000000D03*
X23000000Y-50000000D03*
X57075000Y-113325000D03*
X40825000Y-100475000D03*
X40674293Y-73874293D03*
X37050000Y-39175000D03*
X34704412Y-63000000D03*
X46700000Y-83700000D03*
X38150000Y-94000000D03*
X23000000Y-68000000D03*
X36000000Y-87000000D03*
X35500000Y-98900000D03*
X36500000Y-83200000D03*
X57000000Y-52000000D03*
X46350000Y-100100000D03*
X40178669Y-43053064D03*
X39000000Y-86000000D03*
X46000000Y-102250000D03*
X24000000Y-23000000D03*
X43000000Y-40625000D03*
X47432500Y-47737500D03*
X46100000Y-102975000D03*
X54000000Y-23000000D03*
X39375000Y-39050000D03*
X35725000Y-39225000D03*
X32100000Y-91900000D03*
X50375000Y-80825000D03*
X35100000Y-39225000D03*
X40780994Y-115621742D03*
X39250226Y-110550000D03*
X38000000Y-87000000D03*
X43799293Y-67599293D03*
X42939706Y-63000000D03*
X37000000Y-87000000D03*
X38175000Y-93075000D03*
X50275000Y-48925000D03*
X26950000Y-56925000D03*
X57000000Y-83370370D03*
X38000000Y-86000000D03*
X43599819Y-99101918D03*
X42425000Y-42175000D03*
X47057353Y-63000000D03*
X48600000Y-99875000D03*
X41407293Y-112877714D03*
X23025000Y-66925000D03*
X23000000Y-84000000D03*
X46775000Y-102450000D03*
X36975000Y-93075000D03*
X45100000Y-57000000D03*
X23000000Y-26000000D03*
X42674293Y-73374293D03*
X44175000Y-94825000D03*
X23000000Y-41875000D03*
X39300000Y-98600000D03*
X43350000Y-95325000D03*
X41075000Y-72075000D03*
X44000000Y-90000000D03*
X30400000Y-57000000D03*
X44250000Y-117000000D03*
X30400000Y-97800000D03*
X43000000Y-88000000D03*
X31300000Y-88100000D03*
X40975000Y-117025000D03*
X37000000Y-88000000D03*
X44000000Y-86000000D03*
X47700000Y-98700000D03*
X37000000Y-90000000D03*
X37425000Y-38350000D03*
X23000000Y-82000000D03*
X57000000Y-97629629D03*
X51710000Y-81020762D03*
X35874293Y-72374293D03*
X43800000Y-102600000D03*
X38700000Y-38800000D03*
X40750000Y-92300000D03*
X44000000Y-23000000D03*
X55200000Y-71100000D03*
X42169669Y-77694669D03*
X44775000Y-92100000D03*
X36763235Y-63000000D03*
X36000000Y-88000000D03*
X23000000Y-46000000D03*
X56000000Y-23000000D03*
X26000000Y-23000000D03*
X39219012Y-115621745D03*
X40650000Y-42300000D03*
X38886627Y-37151575D03*
X44000000Y-88000000D03*
X37850000Y-104350000D03*
X43000000Y-91000000D03*
X42674293Y-64174293D03*
X35775000Y-117050000D03*
X44600000Y-93875000D03*
X37650000Y-99225000D03*
X45000000Y-103700000D03*
X46000000Y-117000000D03*
X41825000Y-92300000D03*
X23000000Y-76000000D03*
X49500000Y-91875000D03*
X23025000Y-113200000D03*
X43267831Y-78717831D03*
X43825000Y-93850000D03*
X37925000Y-89000000D03*
X42150000Y-90000000D03*
X39226476Y-42958849D03*
X43500000Y-95900000D03*
X23000000Y-102000000D03*
X41775000Y-69500000D03*
X38245130Y-114400539D03*
X40850000Y-99575000D03*
X23000000Y-70000000D03*
X32600000Y-97700000D03*
X57000000Y-107814814D03*
X51175000Y-63000000D03*
X36000000Y-23000000D03*
X57000000Y-44000000D03*
X36700000Y-57000000D03*
X49300000Y-57000000D03*
X45900000Y-83000000D03*
X47600000Y-48525000D03*
X52000000Y-117000000D03*
X57025000Y-38075000D03*
X39150000Y-95825000D03*
X32500000Y-57000000D03*
X42725000Y-93850000D03*
X35500000Y-102500000D03*
X40000000Y-40000000D03*
X57000000Y-71148148D03*
X41450000Y-38900000D03*
X39924293Y-64124293D03*
X42150000Y-88000000D03*
X45425000Y-42950000D03*
X42000000Y-86000000D03*
X38800000Y-57000000D03*
X38822059Y-63000000D03*
X37850000Y-105750000D03*
X28300000Y-57000000D03*
X37000000Y-89000000D03*
X38375000Y-98600000D03*
X57000000Y-36000000D03*
X40900000Y-112350000D03*
X23000000Y-106000000D03*
X41325000Y-94925000D03*
X53600000Y-69600000D03*
X23000000Y-36000000D03*
X41750000Y-42475000D03*
X57000000Y-46000000D03*
X40650000Y-39050000D03*
X44350000Y-95825000D03*
X37875000Y-39175000D03*
X52875000Y-63025000D03*
X38350000Y-42575000D03*
X47225330Y-44894670D03*
X57000000Y-48000000D03*
X57000000Y-111888888D03*
X39500000Y-104800000D03*
X36000000Y-93075000D03*
X45399293Y-69249293D03*
X37000000Y-91000000D03*
X42200000Y-95800000D03*
X57025000Y-67350000D03*
X40000000Y-23000000D03*
X49618450Y-49496353D03*
X57000000Y-101703703D03*
X36000000Y-92000000D03*
X39500000Y-105750000D03*
X57000000Y-32000000D03*
X42873252Y-101012981D03*
X43700000Y-100100000D03*
X42525000Y-40225000D03*
X41000000Y-87000000D03*
X50000000Y-117000000D03*
X38375000Y-41150000D03*
X48500000Y-85100000D03*
X37075000Y-40800000D03*
X49850000Y-46325000D03*
X47500000Y-101100000D03*
X22975000Y-87925000D03*
X42479430Y-99913141D03*
X34200000Y-85500000D03*
X23000000Y-108000000D03*
X40750000Y-111625000D03*
X44247591Y-44052390D03*
X23000000Y-72000000D03*
X44104401Y-41800000D03*
X49325000Y-99100000D03*
X40675000Y-68800000D03*
X46325000Y-46075000D03*
X50675000Y-47700000D03*
X39175000Y-93150000D03*
%TO.N,+5V*%
X46900000Y-72600000D03*
X34400000Y-73900000D03*
X35750000Y-80445000D03*
X35175000Y-65875000D03*
X35175000Y-64875000D03*
X29025000Y-79150000D03*
X27350000Y-95275000D03*
X45124293Y-67399293D03*
X35600000Y-75100000D03*
X36550000Y-65875000D03*
X30280000Y-95275000D03*
X27525000Y-86550000D03*
X37174293Y-68599293D03*
X30350000Y-86550000D03*
X46337500Y-72037500D03*
X36902370Y-76366994D03*
X30387500Y-80512500D03*
X44674293Y-66949293D03*
X31775000Y-81900000D03*
X49275000Y-81350000D03*
X37650000Y-69075000D03*
%TO.N,PD-BIAS*%
X46274293Y-64949293D03*
X31175000Y-101075000D03*
X46849293Y-64949293D03*
X31175000Y-100025000D03*
%TO.N,I2C_SDA*%
X49600000Y-71400000D03*
X34000000Y-77700000D03*
%TO.N,I2C_SCL*%
X47000000Y-70100000D03*
X32100000Y-76700000D03*
%TO.N,Net-(U4-VOUT)*%
X50100000Y-97440000D03*
X43500000Y-82600000D03*
X43950000Y-83050000D03*
X50100000Y-96900000D03*
%TD*%
D21*
%TO.N,GND*%
X22000000Y-118000000D02*
X22000000Y-62000000D01*
X22000000Y-62000000D02*
X58000000Y-62000000D01*
X58000000Y-62000000D02*
X58000000Y-118000000D01*
X58000000Y-118000000D02*
X22000000Y-118000000D01*
%TD*%
%TA.AperFunction,Conductor*%
%TO.N,GND*%
G36*
X58942539Y-61020185D02*
G01*
X58988294Y-61072989D01*
X58999500Y-61124500D01*
X58999500Y-118875500D01*
X58979815Y-118942539D01*
X58927011Y-118988294D01*
X58875500Y-118999500D01*
X21124500Y-118999500D01*
X21057461Y-118979815D01*
X21011706Y-118927011D01*
X21000500Y-118875500D01*
X21000500Y-116445720D01*
X36125000Y-116445720D01*
X36125000Y-116654279D01*
X36157626Y-116860272D01*
X36222075Y-117058627D01*
X36316759Y-117244451D01*
X36352627Y-117293818D01*
X36352627Y-117293819D01*
X36772421Y-116874024D01*
X36785359Y-116905258D01*
X36867437Y-117028097D01*
X36971903Y-117132563D01*
X37094742Y-117214641D01*
X37125973Y-117227577D01*
X36706179Y-117647371D01*
X36706180Y-117647372D01*
X36755543Y-117683236D01*
X36755556Y-117683244D01*
X36941372Y-117777924D01*
X37139727Y-117842373D01*
X37345721Y-117875000D01*
X37554279Y-117875000D01*
X37760272Y-117842373D01*
X37958627Y-117777924D01*
X38144451Y-117683240D01*
X38193818Y-117647372D01*
X38193818Y-117647371D01*
X37774025Y-117227578D01*
X37805258Y-117214641D01*
X37928097Y-117132563D01*
X38032563Y-117028097D01*
X38114641Y-116905258D01*
X38127578Y-116874025D01*
X38547371Y-117293818D01*
X38547372Y-117293818D01*
X38583240Y-117244451D01*
X38677924Y-117058627D01*
X38742373Y-116860272D01*
X38775000Y-116654279D01*
X38775000Y-116445720D01*
X41225000Y-116445720D01*
X41225000Y-116654279D01*
X41257626Y-116860272D01*
X41322075Y-117058627D01*
X41416759Y-117244451D01*
X41452627Y-117293818D01*
X41452627Y-117293819D01*
X41872421Y-116874024D01*
X41885359Y-116905258D01*
X41967437Y-117028097D01*
X42071903Y-117132563D01*
X42194742Y-117214641D01*
X42225973Y-117227577D01*
X41806179Y-117647371D01*
X41806180Y-117647372D01*
X41855543Y-117683236D01*
X41855556Y-117683244D01*
X42041372Y-117777924D01*
X42239727Y-117842373D01*
X42445721Y-117875000D01*
X42654279Y-117875000D01*
X42860272Y-117842373D01*
X43058627Y-117777924D01*
X43244451Y-117683240D01*
X43293818Y-117647372D01*
X43293818Y-117647371D01*
X42874025Y-117227578D01*
X42905258Y-117214641D01*
X43028097Y-117132563D01*
X43132563Y-117028097D01*
X43214641Y-116905258D01*
X43227578Y-116874025D01*
X43647371Y-117293818D01*
X43647372Y-117293818D01*
X43683240Y-117244451D01*
X43777924Y-117058627D01*
X43842373Y-116860272D01*
X43875000Y-116654279D01*
X43875000Y-116445720D01*
X43842373Y-116239727D01*
X43777924Y-116041372D01*
X43683244Y-115855556D01*
X43683236Y-115855543D01*
X43647372Y-115806180D01*
X43647371Y-115806179D01*
X43227577Y-116225973D01*
X43214641Y-116194742D01*
X43132563Y-116071903D01*
X43028097Y-115967437D01*
X42905258Y-115885359D01*
X42874024Y-115872421D01*
X43293819Y-115452627D01*
X43244451Y-115416759D01*
X43058627Y-115322075D01*
X42860272Y-115257626D01*
X42654279Y-115225000D01*
X42445721Y-115225000D01*
X42239727Y-115257626D01*
X42041372Y-115322075D01*
X41855552Y-115416757D01*
X41806180Y-115452627D01*
X42225975Y-115872421D01*
X42194742Y-115885359D01*
X42071903Y-115967437D01*
X41967437Y-116071903D01*
X41885359Y-116194742D01*
X41872421Y-116225974D01*
X41452627Y-115806180D01*
X41416757Y-115855552D01*
X41322075Y-116041372D01*
X41257626Y-116239727D01*
X41225000Y-116445720D01*
X38775000Y-116445720D01*
X38742373Y-116239727D01*
X38677924Y-116041372D01*
X38583244Y-115855556D01*
X38583236Y-115855543D01*
X38547372Y-115806180D01*
X38547371Y-115806179D01*
X38127577Y-116225973D01*
X38114641Y-116194742D01*
X38032563Y-116071903D01*
X37928097Y-115967437D01*
X37805258Y-115885359D01*
X37774024Y-115872421D01*
X38193819Y-115452627D01*
X38144451Y-115416759D01*
X37958627Y-115322075D01*
X37760272Y-115257626D01*
X37554279Y-115225000D01*
X37345721Y-115225000D01*
X37139727Y-115257626D01*
X36941372Y-115322075D01*
X36755552Y-115416757D01*
X36706180Y-115452627D01*
X37125975Y-115872421D01*
X37094742Y-115885359D01*
X36971903Y-115967437D01*
X36867437Y-116071903D01*
X36785359Y-116194742D01*
X36772421Y-116225974D01*
X36352627Y-115806180D01*
X36316757Y-115855552D01*
X36222075Y-116041372D01*
X36157626Y-116239727D01*
X36125000Y-116445720D01*
X21000500Y-116445720D01*
X21000500Y-113905513D01*
X38799500Y-113905513D01*
X38799500Y-114094486D01*
X38829059Y-114281118D01*
X38887454Y-114460836D01*
X38973240Y-114629199D01*
X39084310Y-114782073D01*
X39217927Y-114915690D01*
X39370801Y-115026760D01*
X39450347Y-115067290D01*
X39539163Y-115112545D01*
X39539165Y-115112545D01*
X39539168Y-115112547D01*
X39635497Y-115143846D01*
X39718881Y-115170940D01*
X39905514Y-115200500D01*
X39905519Y-115200500D01*
X40094486Y-115200500D01*
X40281118Y-115170940D01*
X40460832Y-115112547D01*
X40629199Y-115026760D01*
X40782073Y-114915690D01*
X40915690Y-114782073D01*
X41026760Y-114629199D01*
X41112547Y-114460832D01*
X41170940Y-114281118D01*
X41200500Y-114094486D01*
X41200500Y-113905513D01*
X41170940Y-113718881D01*
X41112545Y-113539163D01*
X41026759Y-113370800D01*
X40915690Y-113217927D01*
X40782073Y-113084310D01*
X40629199Y-112973240D01*
X40460836Y-112887454D01*
X40281118Y-112829059D01*
X40094486Y-112799500D01*
X40094481Y-112799500D01*
X39905519Y-112799500D01*
X39905514Y-112799500D01*
X39718881Y-112829059D01*
X39539163Y-112887454D01*
X39370800Y-112973240D01*
X39283579Y-113036610D01*
X39217927Y-113084310D01*
X39217925Y-113084312D01*
X39217924Y-113084312D01*
X39084312Y-113217924D01*
X39084312Y-113217925D01*
X39084310Y-113217927D01*
X39036610Y-113283579D01*
X38973240Y-113370800D01*
X38887454Y-113539163D01*
X38829059Y-113718881D01*
X38799500Y-113905513D01*
X21000500Y-113905513D01*
X21000500Y-111345720D01*
X36125000Y-111345720D01*
X36125000Y-111554279D01*
X36157626Y-111760272D01*
X36222075Y-111958627D01*
X36316759Y-112144451D01*
X36352627Y-112193818D01*
X36352627Y-112193819D01*
X36772421Y-111774024D01*
X36785359Y-111805258D01*
X36867437Y-111928097D01*
X36971903Y-112032563D01*
X37094742Y-112114641D01*
X37125973Y-112127577D01*
X36706179Y-112547371D01*
X36706180Y-112547372D01*
X36755543Y-112583236D01*
X36755556Y-112583244D01*
X36941372Y-112677924D01*
X37139727Y-112742373D01*
X37345721Y-112775000D01*
X37554279Y-112775000D01*
X37760272Y-112742373D01*
X37958627Y-112677924D01*
X38144451Y-112583240D01*
X38193818Y-112547372D01*
X38193818Y-112547371D01*
X37774025Y-112127578D01*
X37805258Y-112114641D01*
X37928097Y-112032563D01*
X38032563Y-111928097D01*
X38114641Y-111805258D01*
X38127578Y-111774025D01*
X38547371Y-112193818D01*
X38547372Y-112193818D01*
X38583240Y-112144451D01*
X38677924Y-111958627D01*
X38742373Y-111760272D01*
X38775000Y-111554279D01*
X38775000Y-111345720D01*
X41225000Y-111345720D01*
X41225000Y-111554279D01*
X41257626Y-111760272D01*
X41322075Y-111958627D01*
X41416759Y-112144451D01*
X41452627Y-112193818D01*
X41452627Y-112193819D01*
X41872421Y-111774024D01*
X41885359Y-111805258D01*
X41967437Y-111928097D01*
X42071903Y-112032563D01*
X42194742Y-112114641D01*
X42225973Y-112127577D01*
X41806179Y-112547371D01*
X41806180Y-112547372D01*
X41855543Y-112583236D01*
X41855556Y-112583244D01*
X42041372Y-112677924D01*
X42239727Y-112742373D01*
X42445721Y-112775000D01*
X42654279Y-112775000D01*
X42860272Y-112742373D01*
X43058627Y-112677924D01*
X43244451Y-112583240D01*
X43293818Y-112547372D01*
X43293818Y-112547371D01*
X42874025Y-112127578D01*
X42905258Y-112114641D01*
X43028097Y-112032563D01*
X43132563Y-111928097D01*
X43214641Y-111805258D01*
X43227578Y-111774025D01*
X43647371Y-112193818D01*
X43647372Y-112193818D01*
X43683240Y-112144451D01*
X43777924Y-111958627D01*
X43842373Y-111760272D01*
X43875000Y-111554279D01*
X43875000Y-111345720D01*
X43842373Y-111139727D01*
X43777924Y-110941372D01*
X43683244Y-110755556D01*
X43683236Y-110755543D01*
X43647372Y-110706180D01*
X43647371Y-110706179D01*
X43227577Y-111125973D01*
X43214641Y-111094742D01*
X43132563Y-110971903D01*
X43028097Y-110867437D01*
X42905258Y-110785359D01*
X42874024Y-110772421D01*
X43293819Y-110352627D01*
X43244451Y-110316759D01*
X43058627Y-110222075D01*
X42860272Y-110157626D01*
X42654279Y-110125000D01*
X42445721Y-110125000D01*
X42239727Y-110157626D01*
X42041372Y-110222075D01*
X41855552Y-110316757D01*
X41806180Y-110352627D01*
X42225975Y-110772421D01*
X42194742Y-110785359D01*
X42071903Y-110867437D01*
X41967437Y-110971903D01*
X41885359Y-111094742D01*
X41872421Y-111125974D01*
X41452627Y-110706180D01*
X41416757Y-110755552D01*
X41322075Y-110941372D01*
X41257626Y-111139727D01*
X41225000Y-111345720D01*
X38775000Y-111345720D01*
X38742373Y-111139727D01*
X38677924Y-110941372D01*
X38583244Y-110755556D01*
X38583236Y-110755543D01*
X38547372Y-110706180D01*
X38547371Y-110706179D01*
X38127577Y-111125973D01*
X38114641Y-111094742D01*
X38032563Y-110971903D01*
X37928097Y-110867437D01*
X37805258Y-110785359D01*
X37774024Y-110772421D01*
X38193819Y-110352627D01*
X38144451Y-110316759D01*
X37958627Y-110222075D01*
X37760272Y-110157626D01*
X37554279Y-110125000D01*
X37345721Y-110125000D01*
X37139727Y-110157626D01*
X36941372Y-110222075D01*
X36755552Y-110316757D01*
X36706180Y-110352627D01*
X37125975Y-110772421D01*
X37094742Y-110785359D01*
X36971903Y-110867437D01*
X36867437Y-110971903D01*
X36785359Y-111094742D01*
X36772421Y-111125974D01*
X36352627Y-110706180D01*
X36316757Y-110755552D01*
X36222075Y-110941372D01*
X36157626Y-111139727D01*
X36125000Y-111345720D01*
X21000500Y-111345720D01*
X21000500Y-106630297D01*
X23950000Y-106630297D01*
X23950000Y-107250000D01*
X24566988Y-107250000D01*
X24534075Y-107307007D01*
X24500000Y-107434174D01*
X24500000Y-107565826D01*
X24534075Y-107692993D01*
X24566988Y-107750000D01*
X23950000Y-107750000D01*
X23950000Y-108369702D01*
X23961602Y-108428033D01*
X23961603Y-108428034D01*
X24005808Y-108494191D01*
X24071965Y-108538396D01*
X24071966Y-108538397D01*
X24130297Y-108549999D01*
X24130301Y-108550000D01*
X24750000Y-108550000D01*
X24750000Y-107933012D01*
X24807007Y-107965925D01*
X24934174Y-108000000D01*
X25065826Y-108000000D01*
X25192993Y-107965925D01*
X25250000Y-107933012D01*
X25250000Y-108550000D01*
X25869699Y-108550000D01*
X25869702Y-108549999D01*
X25928033Y-108538397D01*
X25928034Y-108538396D01*
X25994191Y-108494191D01*
X26038396Y-108428034D01*
X26038397Y-108428033D01*
X26049999Y-108369702D01*
X26050000Y-108369699D01*
X26050000Y-107750000D01*
X25433012Y-107750000D01*
X25465925Y-107692993D01*
X25500000Y-107565826D01*
X25500000Y-107434174D01*
X25465925Y-107307007D01*
X25433012Y-107250000D01*
X26050000Y-107250000D01*
X26050000Y-106630301D01*
X26049999Y-106630297D01*
X26038397Y-106571966D01*
X26038396Y-106571965D01*
X25994191Y-106505808D01*
X25928034Y-106461603D01*
X25928033Y-106461602D01*
X25869702Y-106450000D01*
X25250000Y-106450000D01*
X25250000Y-107066988D01*
X25192993Y-107034075D01*
X25065826Y-107000000D01*
X24934174Y-107000000D01*
X24807007Y-107034075D01*
X24750000Y-107066988D01*
X24750000Y-106450000D01*
X24130297Y-106450000D01*
X24071966Y-106461602D01*
X24071965Y-106461603D01*
X24005808Y-106505808D01*
X23961603Y-106571965D01*
X23961602Y-106571966D01*
X23950000Y-106630297D01*
X21000500Y-106630297D01*
X21000500Y-105058543D01*
X23999499Y-105058543D01*
X24037947Y-105251829D01*
X24037950Y-105251839D01*
X24113364Y-105433907D01*
X24113371Y-105433920D01*
X24222860Y-105597781D01*
X24222863Y-105597785D01*
X24362214Y-105737136D01*
X24362218Y-105737139D01*
X24526079Y-105846628D01*
X24526092Y-105846635D01*
X24708160Y-105922049D01*
X24708165Y-105922051D01*
X24708169Y-105922051D01*
X24708170Y-105922052D01*
X24901456Y-105960500D01*
X24901459Y-105960500D01*
X25098543Y-105960500D01*
X25228582Y-105934632D01*
X25291835Y-105922051D01*
X25473914Y-105846632D01*
X25637782Y-105737139D01*
X25777139Y-105597782D01*
X25886632Y-105433914D01*
X25962051Y-105251835D01*
X25976630Y-105178543D01*
X53999499Y-105178543D01*
X54037947Y-105371829D01*
X54037950Y-105371839D01*
X54113364Y-105553907D01*
X54113371Y-105553920D01*
X54222860Y-105717781D01*
X54222863Y-105717785D01*
X54362214Y-105857136D01*
X54362218Y-105857139D01*
X54526079Y-105966628D01*
X54526092Y-105966635D01*
X54708160Y-106042049D01*
X54708165Y-106042051D01*
X54708169Y-106042051D01*
X54708170Y-106042052D01*
X54901456Y-106080500D01*
X54901459Y-106080500D01*
X55098543Y-106080500D01*
X55228582Y-106054632D01*
X55291835Y-106042051D01*
X55473914Y-105966632D01*
X55637782Y-105857139D01*
X55777139Y-105717782D01*
X55886632Y-105553914D01*
X55962051Y-105371835D01*
X56000500Y-105178541D01*
X56000500Y-104981459D01*
X56000500Y-104981456D01*
X55962052Y-104788170D01*
X55962051Y-104788169D01*
X55962051Y-104788165D01*
X55912344Y-104668160D01*
X55886635Y-104606092D01*
X55886628Y-104606079D01*
X55777139Y-104442218D01*
X55777136Y-104442214D01*
X55637785Y-104302863D01*
X55637781Y-104302860D01*
X55473920Y-104193371D01*
X55473907Y-104193364D01*
X55291839Y-104117950D01*
X55291829Y-104117947D01*
X55098543Y-104079500D01*
X55098541Y-104079500D01*
X54901459Y-104079500D01*
X54901457Y-104079500D01*
X54708170Y-104117947D01*
X54708160Y-104117950D01*
X54526092Y-104193364D01*
X54526079Y-104193371D01*
X54362218Y-104302860D01*
X54362214Y-104302863D01*
X54222863Y-104442214D01*
X54222860Y-104442218D01*
X54113371Y-104606079D01*
X54113364Y-104606092D01*
X54037950Y-104788160D01*
X54037947Y-104788170D01*
X53999500Y-104981456D01*
X53999500Y-104981459D01*
X53999500Y-105178541D01*
X53999500Y-105178543D01*
X53999499Y-105178543D01*
X25976630Y-105178543D01*
X26000500Y-105058541D01*
X26000500Y-104861459D01*
X26000500Y-104861456D01*
X25962052Y-104668170D01*
X25962051Y-104668169D01*
X25962051Y-104668165D01*
X25936337Y-104606086D01*
X25886635Y-104486092D01*
X25886628Y-104486079D01*
X25777139Y-104322218D01*
X25777136Y-104322214D01*
X25637785Y-104182863D01*
X25637781Y-104182860D01*
X25473920Y-104073371D01*
X25473907Y-104073364D01*
X25291839Y-103997950D01*
X25291829Y-103997947D01*
X25098543Y-103959500D01*
X25098541Y-103959500D01*
X24901459Y-103959500D01*
X24901457Y-103959500D01*
X24708170Y-103997947D01*
X24708160Y-103997950D01*
X24526092Y-104073364D01*
X24526079Y-104073371D01*
X24362218Y-104182860D01*
X24362214Y-104182863D01*
X24222863Y-104322214D01*
X24222860Y-104322218D01*
X24113371Y-104486079D01*
X24113364Y-104486092D01*
X24037950Y-104668160D01*
X24037947Y-104668170D01*
X23999500Y-104861456D01*
X23999500Y-104861459D01*
X23999500Y-105058541D01*
X23999500Y-105058543D01*
X23999499Y-105058543D01*
X21000500Y-105058543D01*
X21000500Y-102518543D01*
X23999499Y-102518543D01*
X24037947Y-102711829D01*
X24037950Y-102711839D01*
X24113364Y-102893907D01*
X24113371Y-102893920D01*
X24222860Y-103057781D01*
X24222863Y-103057785D01*
X24362214Y-103197136D01*
X24362218Y-103197139D01*
X24526079Y-103306628D01*
X24526092Y-103306635D01*
X24708160Y-103382049D01*
X24708165Y-103382051D01*
X24708169Y-103382051D01*
X24708170Y-103382052D01*
X24901456Y-103420500D01*
X24901459Y-103420500D01*
X25098543Y-103420500D01*
X25228582Y-103394632D01*
X25291835Y-103382051D01*
X25473914Y-103306632D01*
X25637782Y-103197139D01*
X25777139Y-103057782D01*
X25886632Y-102893914D01*
X25962051Y-102711835D01*
X25981606Y-102613526D01*
X44253499Y-102613526D01*
X44282186Y-102757739D01*
X44282188Y-102757747D01*
X44338456Y-102893594D01*
X44338463Y-102893606D01*
X44420155Y-103015865D01*
X44420158Y-103015869D01*
X44524130Y-103119841D01*
X44524134Y-103119844D01*
X44646393Y-103201536D01*
X44646405Y-103201543D01*
X44761072Y-103249038D01*
X44782254Y-103257812D01*
X44817571Y-103264837D01*
X44926473Y-103286500D01*
X44926476Y-103286500D01*
X45073526Y-103286500D01*
X45152494Y-103270792D01*
X45183793Y-103264565D01*
X45217746Y-103257812D01*
X45290055Y-103227860D01*
X45353594Y-103201543D01*
X45353597Y-103201541D01*
X45353600Y-103201540D01*
X45475866Y-103119844D01*
X45579844Y-103015866D01*
X45661540Y-102893600D01*
X45661541Y-102893597D01*
X45661543Y-102893594D01*
X45687860Y-102830055D01*
X45717812Y-102757746D01*
X45746500Y-102613524D01*
X45746500Y-102466476D01*
X45746500Y-102466473D01*
X45746499Y-102466471D01*
X45744155Y-102454683D01*
X45740554Y-102436579D01*
X53950000Y-102436579D01*
X53950000Y-102643420D01*
X53990348Y-102846266D01*
X53990350Y-102846274D01*
X54069500Y-103037359D01*
X54101377Y-103085067D01*
X54101378Y-103085067D01*
X54517037Y-102669408D01*
X54534075Y-102732993D01*
X54599901Y-102847007D01*
X54692993Y-102940099D01*
X54807007Y-103005925D01*
X54870590Y-103022962D01*
X54454931Y-103438620D01*
X54454932Y-103438621D01*
X54502633Y-103470495D01*
X54502639Y-103470498D01*
X54693725Y-103549649D01*
X54693733Y-103549651D01*
X54896579Y-103589999D01*
X54896583Y-103590000D01*
X55103417Y-103590000D01*
X55103420Y-103589999D01*
X55306266Y-103549651D01*
X55306274Y-103549649D01*
X55497366Y-103470495D01*
X55545066Y-103438621D01*
X55545067Y-103438620D01*
X55129409Y-103022962D01*
X55192993Y-103005925D01*
X55307007Y-102940099D01*
X55400099Y-102847007D01*
X55465925Y-102732993D01*
X55482962Y-102669409D01*
X55898620Y-103085067D01*
X55898621Y-103085066D01*
X55930495Y-103037366D01*
X56009649Y-102846274D01*
X56009651Y-102846266D01*
X56049999Y-102643420D01*
X56050000Y-102643417D01*
X56050000Y-102436583D01*
X56049999Y-102436579D01*
X56009651Y-102233733D01*
X56009649Y-102233725D01*
X55930498Y-102042639D01*
X55930495Y-102042633D01*
X55898621Y-101994932D01*
X55898620Y-101994931D01*
X55482962Y-102410590D01*
X55465925Y-102347007D01*
X55400099Y-102232993D01*
X55307007Y-102139901D01*
X55192993Y-102074075D01*
X55129409Y-102057037D01*
X55545067Y-101641378D01*
X55545067Y-101641377D01*
X55497359Y-101609500D01*
X55306274Y-101530350D01*
X55306266Y-101530348D01*
X55103420Y-101490000D01*
X54896579Y-101490000D01*
X54693733Y-101530348D01*
X54693725Y-101530350D01*
X54502641Y-101609500D01*
X54502631Y-101609505D01*
X54454932Y-101641377D01*
X54454932Y-101641378D01*
X54870591Y-102057037D01*
X54807007Y-102074075D01*
X54692993Y-102139901D01*
X54599901Y-102232993D01*
X54534075Y-102347007D01*
X54517037Y-102410591D01*
X54101378Y-101994932D01*
X54101377Y-101994932D01*
X54069505Y-102042631D01*
X54069500Y-102042641D01*
X53990350Y-102233725D01*
X53990348Y-102233733D01*
X53950000Y-102436579D01*
X45740554Y-102436579D01*
X45717813Y-102322260D01*
X45717812Y-102322254D01*
X45681146Y-102233733D01*
X45661543Y-102186405D01*
X45661536Y-102186393D01*
X45579844Y-102064134D01*
X45579841Y-102064130D01*
X45475869Y-101960158D01*
X45475865Y-101960155D01*
X45353606Y-101878463D01*
X45353594Y-101878456D01*
X45217747Y-101822188D01*
X45217739Y-101822186D01*
X45073526Y-101793500D01*
X45073524Y-101793500D01*
X44926476Y-101793500D01*
X44926474Y-101793500D01*
X44782260Y-101822186D01*
X44782252Y-101822188D01*
X44646405Y-101878456D01*
X44646393Y-101878463D01*
X44524134Y-101960155D01*
X44524130Y-101960158D01*
X44420158Y-102064130D01*
X44420155Y-102064134D01*
X44338463Y-102186393D01*
X44338456Y-102186405D01*
X44282188Y-102322252D01*
X44282186Y-102322260D01*
X44253500Y-102466473D01*
X44253500Y-102466476D01*
X44253500Y-102613524D01*
X44253500Y-102613526D01*
X44253499Y-102613526D01*
X25981606Y-102613526D01*
X26000500Y-102518543D01*
X26000500Y-102321456D01*
X25962052Y-102128170D01*
X25962051Y-102128169D01*
X25962051Y-102128165D01*
X25962049Y-102128160D01*
X25886635Y-101946092D01*
X25886628Y-101946079D01*
X25777139Y-101782218D01*
X25777136Y-101782214D01*
X25637785Y-101642863D01*
X25637781Y-101642860D01*
X25473920Y-101533371D01*
X25473907Y-101533364D01*
X25291839Y-101457950D01*
X25291829Y-101457947D01*
X25098543Y-101419500D01*
X25098541Y-101419500D01*
X24901459Y-101419500D01*
X24901457Y-101419500D01*
X24708170Y-101457947D01*
X24708160Y-101457950D01*
X24526092Y-101533364D01*
X24526079Y-101533371D01*
X24362218Y-101642860D01*
X24362214Y-101642863D01*
X24222863Y-101782214D01*
X24222860Y-101782218D01*
X24113371Y-101946079D01*
X24113364Y-101946092D01*
X24037950Y-102128160D01*
X24037947Y-102128170D01*
X23999500Y-102321456D01*
X23999500Y-102321459D01*
X23999500Y-102518541D01*
X23999500Y-102518543D01*
X23999499Y-102518543D01*
X21000500Y-102518543D01*
X21000500Y-101028856D01*
X30824500Y-101028856D01*
X30824500Y-101121144D01*
X30844685Y-101196476D01*
X30848387Y-101210290D01*
X30848388Y-101210293D01*
X30894526Y-101290205D01*
X30894529Y-101290209D01*
X30894531Y-101290212D01*
X30959788Y-101355469D01*
X30959791Y-101355470D01*
X30959794Y-101355473D01*
X31039706Y-101401611D01*
X31039707Y-101401611D01*
X31039712Y-101401614D01*
X31128856Y-101425500D01*
X31128858Y-101425500D01*
X31221142Y-101425500D01*
X31221144Y-101425500D01*
X31310288Y-101401614D01*
X31390212Y-101355469D01*
X31455469Y-101290212D01*
X31501614Y-101210288D01*
X31525500Y-101121144D01*
X31525500Y-101028856D01*
X31501614Y-100939712D01*
X31500422Y-100937647D01*
X31455473Y-100859794D01*
X31455470Y-100859791D01*
X31455469Y-100859788D01*
X31390212Y-100794531D01*
X31390209Y-100794529D01*
X31390205Y-100794526D01*
X31310293Y-100748388D01*
X31310290Y-100748387D01*
X31310289Y-100748386D01*
X31310288Y-100748386D01*
X31221144Y-100724500D01*
X31128856Y-100724500D01*
X31039712Y-100748386D01*
X31039711Y-100748386D01*
X31039709Y-100748387D01*
X31039706Y-100748388D01*
X30959794Y-100794526D01*
X30959785Y-100794533D01*
X30894533Y-100859785D01*
X30894526Y-100859794D01*
X30848388Y-100939706D01*
X30848387Y-100939709D01*
X30848386Y-100939711D01*
X30848386Y-100939712D01*
X30824500Y-101028856D01*
X21000500Y-101028856D01*
X21000500Y-99978543D01*
X23999499Y-99978543D01*
X24037947Y-100171829D01*
X24037950Y-100171839D01*
X24113364Y-100353907D01*
X24113371Y-100353920D01*
X24222860Y-100517781D01*
X24222863Y-100517785D01*
X24362214Y-100657136D01*
X24362218Y-100657139D01*
X24526079Y-100766628D01*
X24526092Y-100766635D01*
X24644511Y-100815685D01*
X24708165Y-100842051D01*
X24708169Y-100842051D01*
X24708170Y-100842052D01*
X24901456Y-100880500D01*
X24901459Y-100880500D01*
X25098543Y-100880500D01*
X25228582Y-100854632D01*
X25291835Y-100842051D01*
X25473914Y-100766632D01*
X25637782Y-100657139D01*
X25679219Y-100615702D01*
X44204000Y-100615702D01*
X44215602Y-100674033D01*
X44215603Y-100674034D01*
X44259808Y-100740191D01*
X44325965Y-100784396D01*
X44325966Y-100784397D01*
X44384297Y-100795999D01*
X44384301Y-100796000D01*
X44750000Y-100796000D01*
X45250000Y-100796000D01*
X45472752Y-100796000D01*
X45539791Y-100815685D01*
X45585546Y-100868489D01*
X45595490Y-100937647D01*
X45587314Y-100967451D01*
X45552187Y-101052257D01*
X45552186Y-101052260D01*
X45523500Y-101196473D01*
X45523500Y-101196476D01*
X45523500Y-101343524D01*
X45523500Y-101343526D01*
X45523499Y-101343526D01*
X45552186Y-101487739D01*
X45552188Y-101487747D01*
X45608456Y-101623594D01*
X45608463Y-101623606D01*
X45690155Y-101745865D01*
X45690158Y-101745869D01*
X45794130Y-101849841D01*
X45794134Y-101849844D01*
X45916393Y-101931536D01*
X45916405Y-101931543D01*
X46031072Y-101979038D01*
X46052254Y-101987812D01*
X46087571Y-101994837D01*
X46196473Y-102016500D01*
X46196476Y-102016500D01*
X46343526Y-102016500D01*
X46416127Y-102002058D01*
X46487746Y-101987812D01*
X46560055Y-101957860D01*
X46623594Y-101931543D01*
X46623597Y-101931541D01*
X46623600Y-101931540D01*
X46745866Y-101849844D01*
X46849844Y-101745866D01*
X46931540Y-101623600D01*
X46931541Y-101623596D01*
X46931543Y-101623594D01*
X46957860Y-101560055D01*
X46987812Y-101487746D01*
X47016500Y-101343524D01*
X47016500Y-101196476D01*
X47016500Y-101196473D01*
X46987813Y-101052260D01*
X46987812Y-101052254D01*
X46948980Y-100958504D01*
X46931543Y-100916405D01*
X46931536Y-100916393D01*
X46897077Y-100864822D01*
X53999499Y-100864822D01*
X54008231Y-100908717D01*
X54008234Y-100908724D01*
X54041495Y-100958503D01*
X54041496Y-100958504D01*
X54091278Y-100991767D01*
X54091281Y-100991767D01*
X54091282Y-100991768D01*
X54135177Y-101000500D01*
X54135180Y-101000500D01*
X55864822Y-101000500D01*
X55908717Y-100991768D01*
X55908717Y-100991767D01*
X55908722Y-100991767D01*
X55958504Y-100958504D01*
X55991767Y-100908722D01*
X55997381Y-100880500D01*
X56000500Y-100864822D01*
X56000500Y-99135177D01*
X55991768Y-99091282D01*
X55991767Y-99091281D01*
X55991767Y-99091278D01*
X55958504Y-99041496D01*
X55958503Y-99041495D01*
X55908724Y-99008234D01*
X55908717Y-99008231D01*
X55864822Y-98999500D01*
X55864820Y-98999500D01*
X54135180Y-98999500D01*
X54135178Y-98999500D01*
X54091282Y-99008231D01*
X54091275Y-99008234D01*
X54041496Y-99041495D01*
X54041495Y-99041496D01*
X54008234Y-99091275D01*
X54008231Y-99091282D01*
X53999500Y-99135177D01*
X53999500Y-99135180D01*
X53999500Y-100864820D01*
X53999500Y-100864822D01*
X53999499Y-100864822D01*
X46897077Y-100864822D01*
X46849844Y-100794134D01*
X46849841Y-100794130D01*
X46745869Y-100690158D01*
X46745865Y-100690155D01*
X46623606Y-100608463D01*
X46623594Y-100608456D01*
X46487747Y-100552188D01*
X46487739Y-100552186D01*
X46343526Y-100523500D01*
X46343524Y-100523500D01*
X46196476Y-100523500D01*
X46196474Y-100523500D01*
X46052260Y-100552186D01*
X46052257Y-100552187D01*
X46052255Y-100552187D01*
X46052254Y-100552188D01*
X46024930Y-100563506D01*
X45967451Y-100587314D01*
X45897982Y-100594782D01*
X45835503Y-100563506D01*
X45799851Y-100503416D01*
X45796000Y-100472752D01*
X45796000Y-100250000D01*
X45250000Y-100250000D01*
X45250000Y-100796000D01*
X44750000Y-100796000D01*
X44750000Y-100250000D01*
X44204000Y-100250000D01*
X44204000Y-100615702D01*
X25679219Y-100615702D01*
X25777139Y-100517782D01*
X25886632Y-100353914D01*
X25898609Y-100325000D01*
X25933728Y-100240214D01*
X25962051Y-100171835D01*
X26000437Y-99978858D01*
X26000437Y-99978856D01*
X30824500Y-99978856D01*
X30824500Y-100071143D01*
X30848387Y-100160290D01*
X30848388Y-100160293D01*
X30894526Y-100240205D01*
X30894529Y-100240209D01*
X30894531Y-100240212D01*
X30959788Y-100305469D01*
X30959791Y-100305470D01*
X30959794Y-100305473D01*
X31039706Y-100351611D01*
X31039707Y-100351611D01*
X31039712Y-100351614D01*
X31128856Y-100375500D01*
X31128858Y-100375500D01*
X31221142Y-100375500D01*
X31221144Y-100375500D01*
X31310288Y-100351614D01*
X31390212Y-100305469D01*
X31455469Y-100240212D01*
X31501614Y-100160288D01*
X31525500Y-100071144D01*
X31525500Y-99978856D01*
X31519701Y-99957213D01*
X44675000Y-99957213D01*
X44675000Y-100042787D01*
X44697149Y-100125445D01*
X44739936Y-100199554D01*
X44800446Y-100260064D01*
X44874555Y-100302851D01*
X44957213Y-100325000D01*
X45042787Y-100325000D01*
X45125445Y-100302851D01*
X45199554Y-100260064D01*
X45260064Y-100199554D01*
X45302851Y-100125445D01*
X45325000Y-100042787D01*
X45325000Y-99957213D01*
X45302851Y-99874555D01*
X45260064Y-99800446D01*
X45209618Y-99750000D01*
X45250000Y-99750000D01*
X45796000Y-99750000D01*
X45796000Y-99384301D01*
X45795999Y-99384297D01*
X45784397Y-99325966D01*
X45784396Y-99325965D01*
X45740191Y-99259807D01*
X45698908Y-99232223D01*
X45698858Y-99232190D01*
X45674034Y-99215603D01*
X45674033Y-99215602D01*
X45615702Y-99204000D01*
X45250000Y-99204000D01*
X45250000Y-99750000D01*
X45209618Y-99750000D01*
X45199554Y-99739936D01*
X45125445Y-99697149D01*
X45042787Y-99675000D01*
X44957213Y-99675000D01*
X44874555Y-99697149D01*
X44800446Y-99739936D01*
X44739936Y-99800446D01*
X44697149Y-99874555D01*
X44675000Y-99957213D01*
X31519701Y-99957213D01*
X31501614Y-99889712D01*
X31492863Y-99874555D01*
X31455473Y-99809794D01*
X31455470Y-99809791D01*
X31455469Y-99809788D01*
X31390212Y-99744531D01*
X31390209Y-99744529D01*
X31390205Y-99744526D01*
X31310293Y-99698388D01*
X31310290Y-99698387D01*
X31310289Y-99698386D01*
X31310288Y-99698386D01*
X31221144Y-99674500D01*
X31128856Y-99674500D01*
X31039712Y-99698386D01*
X31039711Y-99698386D01*
X31039709Y-99698387D01*
X31039706Y-99698388D01*
X30959794Y-99744526D01*
X30959785Y-99744533D01*
X30894533Y-99809785D01*
X30894526Y-99809794D01*
X30848388Y-99889706D01*
X30848387Y-99889709D01*
X30824500Y-99978856D01*
X26000437Y-99978856D01*
X26000500Y-99978543D01*
X26000500Y-99781456D01*
X25962052Y-99588170D01*
X25962051Y-99588169D01*
X25962051Y-99588165D01*
X25894741Y-99425662D01*
X25886635Y-99406091D01*
X25886628Y-99406079D01*
X25872074Y-99384297D01*
X44204000Y-99384297D01*
X44204000Y-99750000D01*
X44750000Y-99750000D01*
X44750000Y-99204000D01*
X44384297Y-99204000D01*
X44325966Y-99215602D01*
X44325965Y-99215603D01*
X44259808Y-99259808D01*
X44215603Y-99325965D01*
X44215602Y-99325966D01*
X44204000Y-99384297D01*
X25872074Y-99384297D01*
X25777139Y-99242218D01*
X25777136Y-99242214D01*
X25637785Y-99102863D01*
X25637781Y-99102860D01*
X25473920Y-98993371D01*
X25473907Y-98993364D01*
X25291839Y-98917950D01*
X25291829Y-98917947D01*
X25098543Y-98879500D01*
X25098541Y-98879500D01*
X24901459Y-98879500D01*
X24901457Y-98879500D01*
X24708170Y-98917947D01*
X24708160Y-98917950D01*
X24526092Y-98993364D01*
X24526079Y-98993371D01*
X24362218Y-99102860D01*
X24362214Y-99102863D01*
X24222863Y-99242214D01*
X24222860Y-99242218D01*
X24113371Y-99406079D01*
X24113364Y-99406092D01*
X24037950Y-99588160D01*
X24037947Y-99588170D01*
X23999500Y-99781456D01*
X23999500Y-99781459D01*
X23999500Y-99978541D01*
X23999500Y-99978543D01*
X23999499Y-99978543D01*
X21000500Y-99978543D01*
X21000500Y-96853856D01*
X49749500Y-96853856D01*
X49749500Y-96946143D01*
X49773387Y-97035290D01*
X49773387Y-97035291D01*
X49815366Y-97108000D01*
X49831839Y-97175900D01*
X49815366Y-97232000D01*
X49773387Y-97304708D01*
X49773387Y-97304709D01*
X49749500Y-97393856D01*
X49749500Y-97486143D01*
X49773387Y-97575290D01*
X49773388Y-97575293D01*
X49819526Y-97655205D01*
X49819529Y-97655209D01*
X49819531Y-97655212D01*
X49884788Y-97720469D01*
X49884791Y-97720470D01*
X49884794Y-97720473D01*
X49964706Y-97766611D01*
X49964707Y-97766611D01*
X49964712Y-97766614D01*
X50053856Y-97790500D01*
X50053858Y-97790500D01*
X50146142Y-97790500D01*
X50146144Y-97790500D01*
X50235288Y-97766614D01*
X50315212Y-97720469D01*
X50380469Y-97655212D01*
X50426614Y-97575288D01*
X50450500Y-97486144D01*
X50450500Y-97393856D01*
X50426614Y-97304712D01*
X50384634Y-97232001D01*
X50368160Y-97164101D01*
X50384634Y-97107999D01*
X50426611Y-97035293D01*
X50426612Y-97035291D01*
X50426614Y-97035288D01*
X50450500Y-96946144D01*
X50450500Y-96853856D01*
X50426614Y-96764712D01*
X50426611Y-96764706D01*
X50380473Y-96684794D01*
X50380470Y-96684791D01*
X50380469Y-96684788D01*
X50315212Y-96619531D01*
X50315209Y-96619529D01*
X50315205Y-96619526D01*
X50235293Y-96573388D01*
X50235290Y-96573387D01*
X50235289Y-96573386D01*
X50235288Y-96573386D01*
X50146144Y-96549500D01*
X50053856Y-96549500D01*
X49964712Y-96573386D01*
X49964711Y-96573386D01*
X49964709Y-96573387D01*
X49964706Y-96573388D01*
X49884794Y-96619526D01*
X49884785Y-96619533D01*
X49819533Y-96684785D01*
X49819526Y-96684794D01*
X49773388Y-96764706D01*
X49773387Y-96764709D01*
X49749500Y-96853856D01*
X21000500Y-96853856D01*
X21000500Y-95228856D01*
X26999500Y-95228856D01*
X26999500Y-95321143D01*
X27023387Y-95410290D01*
X27023388Y-95410293D01*
X27069526Y-95490205D01*
X27069529Y-95490209D01*
X27069531Y-95490212D01*
X27134788Y-95555469D01*
X27134791Y-95555470D01*
X27134794Y-95555473D01*
X27214706Y-95601611D01*
X27214707Y-95601611D01*
X27214712Y-95601614D01*
X27303856Y-95625500D01*
X27303858Y-95625500D01*
X27396142Y-95625500D01*
X27396144Y-95625500D01*
X27485288Y-95601614D01*
X27565212Y-95555469D01*
X27630469Y-95490212D01*
X27676614Y-95410288D01*
X27700500Y-95321144D01*
X27700500Y-95228856D01*
X29929500Y-95228856D01*
X29929500Y-95321143D01*
X29953387Y-95410290D01*
X29953388Y-95410293D01*
X29999526Y-95490205D01*
X29999529Y-95490209D01*
X29999531Y-95490212D01*
X30064788Y-95555469D01*
X30064791Y-95555470D01*
X30064794Y-95555473D01*
X30144706Y-95601611D01*
X30144707Y-95601611D01*
X30144712Y-95601614D01*
X30233856Y-95625500D01*
X30233858Y-95625500D01*
X30326142Y-95625500D01*
X30326144Y-95625500D01*
X30415288Y-95601614D01*
X30495212Y-95555469D01*
X30560469Y-95490212D01*
X30606614Y-95410288D01*
X30630500Y-95321144D01*
X30630500Y-95228856D01*
X30606614Y-95139712D01*
X30606611Y-95139706D01*
X30560473Y-95059794D01*
X30560470Y-95059791D01*
X30560469Y-95059788D01*
X30495212Y-94994531D01*
X30495209Y-94994529D01*
X30495205Y-94994526D01*
X30415293Y-94948388D01*
X30415290Y-94948387D01*
X30415289Y-94948386D01*
X30415288Y-94948386D01*
X30326144Y-94924500D01*
X30233856Y-94924500D01*
X30144712Y-94948386D01*
X30144711Y-94948386D01*
X30144709Y-94948387D01*
X30144706Y-94948388D01*
X30064794Y-94994526D01*
X30064785Y-94994533D01*
X29999533Y-95059785D01*
X29999526Y-95059794D01*
X29953388Y-95139706D01*
X29953387Y-95139709D01*
X29929500Y-95228856D01*
X27700500Y-95228856D01*
X27676614Y-95139712D01*
X27676611Y-95139706D01*
X27630473Y-95059794D01*
X27630470Y-95059791D01*
X27630469Y-95059788D01*
X27565212Y-94994531D01*
X27565209Y-94994529D01*
X27565205Y-94994526D01*
X27485293Y-94948388D01*
X27485290Y-94948387D01*
X27485289Y-94948386D01*
X27485288Y-94948386D01*
X27396144Y-94924500D01*
X27303856Y-94924500D01*
X27214712Y-94948386D01*
X27214711Y-94948386D01*
X27214709Y-94948387D01*
X27214706Y-94948388D01*
X27134794Y-94994526D01*
X27134785Y-94994533D01*
X27069533Y-95059785D01*
X27069526Y-95059794D01*
X27023388Y-95139706D01*
X27023387Y-95139709D01*
X26999500Y-95228856D01*
X21000500Y-95228856D01*
X21000500Y-86503856D01*
X27174500Y-86503856D01*
X27174500Y-86596143D01*
X27198387Y-86685290D01*
X27198388Y-86685293D01*
X27244526Y-86765205D01*
X27244529Y-86765209D01*
X27244531Y-86765212D01*
X27309788Y-86830469D01*
X27309791Y-86830470D01*
X27309794Y-86830473D01*
X27389706Y-86876611D01*
X27389707Y-86876611D01*
X27389712Y-86876614D01*
X27478856Y-86900500D01*
X27478858Y-86900500D01*
X27571142Y-86900500D01*
X27571144Y-86900500D01*
X27660288Y-86876614D01*
X27740212Y-86830469D01*
X27805469Y-86765212D01*
X27851614Y-86685288D01*
X27875500Y-86596144D01*
X27875500Y-86503856D01*
X29999500Y-86503856D01*
X29999500Y-86596143D01*
X30023387Y-86685290D01*
X30023388Y-86685293D01*
X30069526Y-86765205D01*
X30069529Y-86765209D01*
X30069531Y-86765212D01*
X30134788Y-86830469D01*
X30134791Y-86830470D01*
X30134794Y-86830473D01*
X30214706Y-86876611D01*
X30214707Y-86876611D01*
X30214712Y-86876614D01*
X30303856Y-86900500D01*
X30303858Y-86900500D01*
X30396142Y-86900500D01*
X30396144Y-86900500D01*
X30485288Y-86876614D01*
X30565212Y-86830469D01*
X30630469Y-86765212D01*
X30676614Y-86685288D01*
X30700500Y-86596144D01*
X30700500Y-86503856D01*
X30676614Y-86414712D01*
X30676611Y-86414706D01*
X30630473Y-86334794D01*
X30630470Y-86334791D01*
X30630469Y-86334788D01*
X30565212Y-86269531D01*
X30565209Y-86269529D01*
X30565205Y-86269526D01*
X30485293Y-86223388D01*
X30485290Y-86223387D01*
X30485289Y-86223386D01*
X30485288Y-86223386D01*
X30396144Y-86199500D01*
X30303856Y-86199500D01*
X30214712Y-86223386D01*
X30214711Y-86223386D01*
X30214709Y-86223387D01*
X30214706Y-86223388D01*
X30134794Y-86269526D01*
X30134785Y-86269533D01*
X30069533Y-86334785D01*
X30069526Y-86334794D01*
X30023388Y-86414706D01*
X30023387Y-86414709D01*
X29999500Y-86503856D01*
X27875500Y-86503856D01*
X27851614Y-86414712D01*
X27851611Y-86414706D01*
X27805473Y-86334794D01*
X27805470Y-86334791D01*
X27805469Y-86334788D01*
X27740212Y-86269531D01*
X27740209Y-86269529D01*
X27740205Y-86269526D01*
X27660293Y-86223388D01*
X27660290Y-86223387D01*
X27660289Y-86223386D01*
X27660288Y-86223386D01*
X27571144Y-86199500D01*
X27478856Y-86199500D01*
X27389712Y-86223386D01*
X27389711Y-86223386D01*
X27389709Y-86223387D01*
X27389706Y-86223388D01*
X27309794Y-86269526D01*
X27309785Y-86269533D01*
X27244533Y-86334785D01*
X27244526Y-86334794D01*
X27198388Y-86414706D01*
X27198387Y-86414709D01*
X27174500Y-86503856D01*
X21000500Y-86503856D01*
X21000500Y-82553856D01*
X43149500Y-82553856D01*
X43149500Y-82646144D01*
X43170197Y-82723388D01*
X43173387Y-82735290D01*
X43173388Y-82735293D01*
X43219526Y-82815205D01*
X43219529Y-82815209D01*
X43219531Y-82815212D01*
X43284788Y-82880469D01*
X43284791Y-82880470D01*
X43284794Y-82880473D01*
X43364706Y-82926611D01*
X43364707Y-82926611D01*
X43364712Y-82926614D01*
X43453856Y-82950500D01*
X43453858Y-82950500D01*
X43475500Y-82950500D01*
X43542539Y-82970185D01*
X43588294Y-83022989D01*
X43599500Y-83074500D01*
X43599500Y-83096143D01*
X43623387Y-83185290D01*
X43623388Y-83185293D01*
X43669526Y-83265205D01*
X43669529Y-83265209D01*
X43669531Y-83265212D01*
X43734788Y-83330469D01*
X43734791Y-83330470D01*
X43734794Y-83330473D01*
X43814706Y-83376611D01*
X43814707Y-83376611D01*
X43814712Y-83376614D01*
X43903856Y-83400500D01*
X43903858Y-83400500D01*
X43996142Y-83400500D01*
X43996144Y-83400500D01*
X44085288Y-83376614D01*
X44165212Y-83330469D01*
X44230469Y-83265212D01*
X44276614Y-83185288D01*
X44300500Y-83096144D01*
X44300500Y-83003856D01*
X44276614Y-82914712D01*
X44256846Y-82880473D01*
X44230473Y-82834794D01*
X44230470Y-82834791D01*
X44230469Y-82834788D01*
X44165212Y-82769531D01*
X44165209Y-82769529D01*
X44165205Y-82769526D01*
X44085293Y-82723388D01*
X44085290Y-82723387D01*
X44085289Y-82723386D01*
X44085288Y-82723386D01*
X43996144Y-82699500D01*
X43974500Y-82699500D01*
X43907461Y-82679815D01*
X43861706Y-82627011D01*
X43850500Y-82575500D01*
X43850500Y-82553858D01*
X43850500Y-82553856D01*
X43826614Y-82464712D01*
X43826611Y-82464706D01*
X43780473Y-82384794D01*
X43780470Y-82384791D01*
X43780469Y-82384788D01*
X43715212Y-82319531D01*
X43715209Y-82319529D01*
X43715205Y-82319526D01*
X43635293Y-82273388D01*
X43635290Y-82273387D01*
X43635289Y-82273386D01*
X43635288Y-82273386D01*
X43546144Y-82249500D01*
X43453856Y-82249500D01*
X43364712Y-82273386D01*
X43364711Y-82273386D01*
X43364709Y-82273387D01*
X43364706Y-82273388D01*
X43284794Y-82319526D01*
X43284785Y-82319533D01*
X43219533Y-82384785D01*
X43219526Y-82384794D01*
X43173388Y-82464706D01*
X43173387Y-82464709D01*
X43173386Y-82464711D01*
X43173386Y-82464712D01*
X43149500Y-82553856D01*
X21000500Y-82553856D01*
X21000500Y-81853856D01*
X31424500Y-81853856D01*
X31424500Y-81946143D01*
X31448387Y-82035290D01*
X31448388Y-82035293D01*
X31494526Y-82115205D01*
X31494529Y-82115209D01*
X31494531Y-82115212D01*
X31559788Y-82180469D01*
X31559791Y-82180470D01*
X31559794Y-82180473D01*
X31639706Y-82226611D01*
X31639707Y-82226611D01*
X31639712Y-82226614D01*
X31728856Y-82250500D01*
X31728858Y-82250500D01*
X31821142Y-82250500D01*
X31821144Y-82250500D01*
X31910288Y-82226614D01*
X31990212Y-82180469D01*
X32055469Y-82115212D01*
X32101614Y-82035288D01*
X32125500Y-81946144D01*
X32125500Y-81853856D01*
X32101614Y-81764712D01*
X32101611Y-81764706D01*
X32055473Y-81684794D01*
X32055470Y-81684791D01*
X32055469Y-81684788D01*
X31990212Y-81619531D01*
X31990209Y-81619529D01*
X31990205Y-81619526D01*
X31910293Y-81573388D01*
X31910290Y-81573387D01*
X31910289Y-81573386D01*
X31910288Y-81573386D01*
X31821144Y-81549500D01*
X31728856Y-81549500D01*
X31639712Y-81573386D01*
X31639711Y-81573386D01*
X31639709Y-81573387D01*
X31639706Y-81573388D01*
X31559794Y-81619526D01*
X31559785Y-81619533D01*
X31494533Y-81684785D01*
X31494526Y-81684794D01*
X31448388Y-81764706D01*
X31448387Y-81764709D01*
X31424500Y-81853856D01*
X21000500Y-81853856D01*
X21000500Y-81303856D01*
X48924500Y-81303856D01*
X48924500Y-81396143D01*
X48948387Y-81485290D01*
X48948388Y-81485293D01*
X48994526Y-81565205D01*
X48994529Y-81565209D01*
X48994531Y-81565212D01*
X49059788Y-81630469D01*
X49059791Y-81630470D01*
X49059794Y-81630473D01*
X49139706Y-81676611D01*
X49139707Y-81676611D01*
X49139712Y-81676614D01*
X49228856Y-81700500D01*
X49228858Y-81700500D01*
X49321142Y-81700500D01*
X49321144Y-81700500D01*
X49410288Y-81676614D01*
X49490212Y-81630469D01*
X49555469Y-81565212D01*
X49601614Y-81485288D01*
X49625500Y-81396144D01*
X49625500Y-81303856D01*
X49601614Y-81214712D01*
X49601611Y-81214706D01*
X49555473Y-81134794D01*
X49555470Y-81134791D01*
X49555469Y-81134788D01*
X49490212Y-81069531D01*
X49490209Y-81069529D01*
X49490205Y-81069526D01*
X49410293Y-81023388D01*
X49410290Y-81023387D01*
X49410289Y-81023386D01*
X49410288Y-81023386D01*
X49321144Y-80999500D01*
X49228856Y-80999500D01*
X49139712Y-81023386D01*
X49139711Y-81023386D01*
X49139709Y-81023387D01*
X49139706Y-81023388D01*
X49059794Y-81069526D01*
X49059785Y-81069533D01*
X48994533Y-81134785D01*
X48994526Y-81134794D01*
X48948388Y-81214706D01*
X48948387Y-81214709D01*
X48924500Y-81303856D01*
X21000500Y-81303856D01*
X21000500Y-80466356D01*
X30037000Y-80466356D01*
X30037000Y-80558644D01*
X30042799Y-80580288D01*
X30060887Y-80647790D01*
X30060888Y-80647793D01*
X30107026Y-80727705D01*
X30107029Y-80727709D01*
X30107031Y-80727712D01*
X30172288Y-80792969D01*
X30172291Y-80792970D01*
X30172294Y-80792973D01*
X30252206Y-80839111D01*
X30252207Y-80839111D01*
X30252212Y-80839114D01*
X30341356Y-80863000D01*
X30341358Y-80863000D01*
X30433642Y-80863000D01*
X30433644Y-80863000D01*
X30522788Y-80839114D01*
X30602712Y-80792969D01*
X30667969Y-80727712D01*
X30714114Y-80647788D01*
X30738000Y-80558644D01*
X30738000Y-80466356D01*
X30719913Y-80398856D01*
X35399500Y-80398856D01*
X35399500Y-80491144D01*
X35417586Y-80558643D01*
X35423387Y-80580290D01*
X35423388Y-80580293D01*
X35469526Y-80660205D01*
X35469529Y-80660209D01*
X35469531Y-80660212D01*
X35534788Y-80725469D01*
X35534791Y-80725470D01*
X35534794Y-80725473D01*
X35614706Y-80771611D01*
X35614707Y-80771611D01*
X35614712Y-80771614D01*
X35703856Y-80795500D01*
X35703858Y-80795500D01*
X35796142Y-80795500D01*
X35796144Y-80795500D01*
X35885288Y-80771614D01*
X35965212Y-80725469D01*
X36030469Y-80660212D01*
X36076614Y-80580288D01*
X36100500Y-80491144D01*
X36100500Y-80398856D01*
X36076614Y-80309712D01*
X36076611Y-80309706D01*
X36030473Y-80229794D01*
X36030470Y-80229791D01*
X36030469Y-80229788D01*
X35965212Y-80164531D01*
X35965209Y-80164529D01*
X35965205Y-80164526D01*
X35885293Y-80118388D01*
X35885290Y-80118387D01*
X35885289Y-80118386D01*
X35885288Y-80118386D01*
X35796144Y-80094500D01*
X35703856Y-80094500D01*
X35614712Y-80118386D01*
X35614711Y-80118386D01*
X35614709Y-80118387D01*
X35614706Y-80118388D01*
X35534794Y-80164526D01*
X35534785Y-80164533D01*
X35469533Y-80229785D01*
X35469526Y-80229794D01*
X35423388Y-80309706D01*
X35423387Y-80309709D01*
X35423386Y-80309711D01*
X35423386Y-80309712D01*
X35399500Y-80398856D01*
X30719913Y-80398856D01*
X30714114Y-80377212D01*
X30714112Y-80377209D01*
X30714112Y-80377207D01*
X30714111Y-80377206D01*
X30667973Y-80297294D01*
X30667970Y-80297291D01*
X30667969Y-80297288D01*
X30602712Y-80232031D01*
X30602709Y-80232029D01*
X30602705Y-80232026D01*
X30522793Y-80185888D01*
X30522790Y-80185887D01*
X30522789Y-80185886D01*
X30522788Y-80185886D01*
X30433644Y-80162000D01*
X30341356Y-80162000D01*
X30252212Y-80185886D01*
X30252211Y-80185886D01*
X30252209Y-80185887D01*
X30252206Y-80185888D01*
X30172294Y-80232026D01*
X30172285Y-80232033D01*
X30107033Y-80297285D01*
X30107026Y-80297294D01*
X30060888Y-80377206D01*
X30060887Y-80377209D01*
X30060886Y-80377211D01*
X30060886Y-80377212D01*
X30037000Y-80466356D01*
X21000500Y-80466356D01*
X21000500Y-79103856D01*
X28674500Y-79103856D01*
X28674500Y-79196143D01*
X28698387Y-79285290D01*
X28698388Y-79285293D01*
X28744526Y-79365205D01*
X28744529Y-79365209D01*
X28744531Y-79365212D01*
X28809788Y-79430469D01*
X28809791Y-79430470D01*
X28809794Y-79430473D01*
X28889706Y-79476611D01*
X28889707Y-79476611D01*
X28889712Y-79476614D01*
X28978856Y-79500500D01*
X28978858Y-79500500D01*
X29071142Y-79500500D01*
X29071144Y-79500500D01*
X29160288Y-79476614D01*
X29240212Y-79430469D01*
X29305469Y-79365212D01*
X29351614Y-79285288D01*
X29375500Y-79196144D01*
X29375500Y-79103856D01*
X29351614Y-79014712D01*
X29351611Y-79014706D01*
X29305473Y-78934794D01*
X29305470Y-78934791D01*
X29305469Y-78934788D01*
X29240212Y-78869531D01*
X29240209Y-78869529D01*
X29240205Y-78869526D01*
X29160293Y-78823388D01*
X29160290Y-78823387D01*
X29160289Y-78823386D01*
X29160288Y-78823386D01*
X29071144Y-78799500D01*
X28978856Y-78799500D01*
X28889712Y-78823386D01*
X28889711Y-78823386D01*
X28889709Y-78823387D01*
X28889706Y-78823388D01*
X28809794Y-78869526D01*
X28809785Y-78869533D01*
X28744533Y-78934785D01*
X28744526Y-78934794D01*
X28698388Y-79014706D01*
X28698387Y-79014709D01*
X28674500Y-79103856D01*
X21000500Y-79103856D01*
X21000500Y-77653856D01*
X33649500Y-77653856D01*
X33649500Y-77746143D01*
X33673387Y-77835290D01*
X33673388Y-77835293D01*
X33719526Y-77915205D01*
X33719529Y-77915209D01*
X33719531Y-77915212D01*
X33784788Y-77980469D01*
X33784791Y-77980470D01*
X33784794Y-77980473D01*
X33864706Y-78026611D01*
X33864707Y-78026611D01*
X33864712Y-78026614D01*
X33953856Y-78050500D01*
X33953858Y-78050500D01*
X34046142Y-78050500D01*
X34046144Y-78050500D01*
X34135288Y-78026614D01*
X34215212Y-77980469D01*
X34280469Y-77915212D01*
X34326614Y-77835288D01*
X34350500Y-77746144D01*
X34350500Y-77653856D01*
X34326614Y-77564712D01*
X34326611Y-77564706D01*
X34280473Y-77484794D01*
X34280470Y-77484791D01*
X34280469Y-77484788D01*
X34215212Y-77419531D01*
X34215209Y-77419529D01*
X34215205Y-77419526D01*
X34135293Y-77373388D01*
X34135290Y-77373387D01*
X34135289Y-77373386D01*
X34135288Y-77373386D01*
X34046144Y-77349500D01*
X33953856Y-77349500D01*
X33864712Y-77373386D01*
X33864711Y-77373386D01*
X33864709Y-77373387D01*
X33864706Y-77373388D01*
X33784794Y-77419526D01*
X33784785Y-77419533D01*
X33719533Y-77484785D01*
X33719526Y-77484794D01*
X33673388Y-77564706D01*
X33673387Y-77564709D01*
X33649500Y-77653856D01*
X21000500Y-77653856D01*
X21000500Y-76653856D01*
X31749500Y-76653856D01*
X31749500Y-76746143D01*
X31773387Y-76835290D01*
X31773388Y-76835293D01*
X31819526Y-76915205D01*
X31819529Y-76915209D01*
X31819531Y-76915212D01*
X31884788Y-76980469D01*
X31884791Y-76980470D01*
X31884794Y-76980473D01*
X31964706Y-77026611D01*
X31964707Y-77026611D01*
X31964712Y-77026614D01*
X32053856Y-77050500D01*
X32053858Y-77050500D01*
X32146142Y-77050500D01*
X32146144Y-77050500D01*
X32235288Y-77026614D01*
X32315212Y-76980469D01*
X32380469Y-76915212D01*
X32426614Y-76835288D01*
X32450500Y-76746144D01*
X32450500Y-76653856D01*
X32426614Y-76564712D01*
X32426611Y-76564706D01*
X32380473Y-76484794D01*
X32380470Y-76484791D01*
X32380469Y-76484788D01*
X32315212Y-76419531D01*
X32315209Y-76419529D01*
X32315205Y-76419526D01*
X32235293Y-76373388D01*
X32235290Y-76373387D01*
X32235289Y-76373386D01*
X32235288Y-76373386D01*
X32146144Y-76349500D01*
X32053856Y-76349500D01*
X31964712Y-76373386D01*
X31964711Y-76373386D01*
X31964709Y-76373387D01*
X31964706Y-76373388D01*
X31884794Y-76419526D01*
X31884785Y-76419533D01*
X31819533Y-76484785D01*
X31819526Y-76484794D01*
X31773388Y-76564706D01*
X31773387Y-76564709D01*
X31773386Y-76564711D01*
X31773386Y-76564712D01*
X31768699Y-76582206D01*
X31749500Y-76653856D01*
X21000500Y-76653856D01*
X21000500Y-76320850D01*
X36551870Y-76320850D01*
X36551870Y-76413138D01*
X36571070Y-76484794D01*
X36575757Y-76502284D01*
X36575758Y-76502287D01*
X36621896Y-76582199D01*
X36621899Y-76582203D01*
X36621901Y-76582206D01*
X36687158Y-76647463D01*
X36687161Y-76647464D01*
X36687164Y-76647467D01*
X36767076Y-76693605D01*
X36767077Y-76693605D01*
X36767082Y-76693608D01*
X36856226Y-76717494D01*
X36856228Y-76717494D01*
X36948512Y-76717494D01*
X36948514Y-76717494D01*
X37037658Y-76693608D01*
X37117582Y-76647463D01*
X37182839Y-76582206D01*
X37228984Y-76502282D01*
X37252870Y-76413138D01*
X37252870Y-76320850D01*
X37228984Y-76231706D01*
X37228981Y-76231700D01*
X37182843Y-76151788D01*
X37182840Y-76151785D01*
X37182839Y-76151782D01*
X37117582Y-76086525D01*
X37117579Y-76086523D01*
X37117575Y-76086520D01*
X37037663Y-76040382D01*
X37037660Y-76040381D01*
X37037659Y-76040380D01*
X37037658Y-76040380D01*
X36948514Y-76016494D01*
X36856226Y-76016494D01*
X36767082Y-76040380D01*
X36767081Y-76040380D01*
X36767079Y-76040381D01*
X36767076Y-76040382D01*
X36687164Y-76086520D01*
X36687155Y-76086527D01*
X36621903Y-76151779D01*
X36621896Y-76151788D01*
X36575758Y-76231700D01*
X36575757Y-76231703D01*
X36575756Y-76231705D01*
X36575756Y-76231706D01*
X36551870Y-76320850D01*
X21000500Y-76320850D01*
X21000500Y-75053856D01*
X35249500Y-75053856D01*
X35249500Y-75146143D01*
X35273387Y-75235290D01*
X35273388Y-75235293D01*
X35319526Y-75315205D01*
X35319529Y-75315209D01*
X35319531Y-75315212D01*
X35384788Y-75380469D01*
X35384791Y-75380470D01*
X35384794Y-75380473D01*
X35464706Y-75426611D01*
X35464707Y-75426611D01*
X35464712Y-75426614D01*
X35553856Y-75450500D01*
X35553858Y-75450500D01*
X35646142Y-75450500D01*
X35646144Y-75450500D01*
X35735288Y-75426614D01*
X35815212Y-75380469D01*
X35880469Y-75315212D01*
X35926614Y-75235288D01*
X35950500Y-75146144D01*
X35950500Y-75053856D01*
X35926614Y-74964712D01*
X35926611Y-74964706D01*
X35880473Y-74884794D01*
X35880470Y-74884791D01*
X35880469Y-74884788D01*
X35815212Y-74819531D01*
X35815209Y-74819529D01*
X35815205Y-74819526D01*
X35735293Y-74773388D01*
X35735290Y-74773387D01*
X35735289Y-74773386D01*
X35735288Y-74773386D01*
X35646144Y-74749500D01*
X35553856Y-74749500D01*
X35464712Y-74773386D01*
X35464711Y-74773386D01*
X35464709Y-74773387D01*
X35464706Y-74773388D01*
X35384794Y-74819526D01*
X35384785Y-74819533D01*
X35319533Y-74884785D01*
X35319526Y-74884794D01*
X35273388Y-74964706D01*
X35273387Y-74964709D01*
X35249500Y-75053856D01*
X21000500Y-75053856D01*
X21000500Y-73853856D01*
X34049500Y-73853856D01*
X34049500Y-73946143D01*
X34073387Y-74035290D01*
X34073388Y-74035293D01*
X34119526Y-74115205D01*
X34119529Y-74115209D01*
X34119531Y-74115212D01*
X34184788Y-74180469D01*
X34184791Y-74180470D01*
X34184794Y-74180473D01*
X34264706Y-74226611D01*
X34264707Y-74226611D01*
X34264712Y-74226614D01*
X34353856Y-74250500D01*
X34353858Y-74250500D01*
X34446142Y-74250500D01*
X34446144Y-74250500D01*
X34535288Y-74226614D01*
X34615212Y-74180469D01*
X34680469Y-74115212D01*
X34726614Y-74035288D01*
X34750500Y-73946144D01*
X34750500Y-73853856D01*
X34726614Y-73764712D01*
X34726611Y-73764706D01*
X34680473Y-73684794D01*
X34680470Y-73684791D01*
X34680469Y-73684788D01*
X34615212Y-73619531D01*
X34615209Y-73619529D01*
X34615205Y-73619526D01*
X34535293Y-73573388D01*
X34535290Y-73573387D01*
X34535289Y-73573386D01*
X34535288Y-73573386D01*
X34446144Y-73549500D01*
X34353856Y-73549500D01*
X34264712Y-73573386D01*
X34264711Y-73573386D01*
X34264709Y-73573387D01*
X34264706Y-73573388D01*
X34184794Y-73619526D01*
X34184785Y-73619533D01*
X34119533Y-73684785D01*
X34119526Y-73684794D01*
X34073388Y-73764706D01*
X34073387Y-73764709D01*
X34049500Y-73853856D01*
X21000500Y-73853856D01*
X21000500Y-71991356D01*
X45987000Y-71991356D01*
X45987000Y-72083643D01*
X46010887Y-72172790D01*
X46010888Y-72172793D01*
X46057026Y-72252705D01*
X46057029Y-72252709D01*
X46057031Y-72252712D01*
X46122288Y-72317969D01*
X46122291Y-72317970D01*
X46122294Y-72317973D01*
X46202206Y-72364111D01*
X46202207Y-72364111D01*
X46202212Y-72364114D01*
X46291356Y-72388000D01*
X46291358Y-72388000D01*
X46383642Y-72388000D01*
X46383644Y-72388000D01*
X46402751Y-72382880D01*
X46472599Y-72384541D01*
X46530462Y-72423702D01*
X46557968Y-72487930D01*
X46554621Y-72534743D01*
X46549500Y-72553856D01*
X46549500Y-72553858D01*
X46549500Y-72646143D01*
X46573387Y-72735290D01*
X46573388Y-72735293D01*
X46619526Y-72815205D01*
X46619529Y-72815209D01*
X46619531Y-72815212D01*
X46684788Y-72880469D01*
X46684791Y-72880470D01*
X46684794Y-72880473D01*
X46764706Y-72926611D01*
X46764707Y-72926611D01*
X46764712Y-72926614D01*
X46853856Y-72950500D01*
X46853858Y-72950500D01*
X46946142Y-72950500D01*
X46946144Y-72950500D01*
X47035288Y-72926614D01*
X47115212Y-72880469D01*
X47180469Y-72815212D01*
X47226614Y-72735288D01*
X47250500Y-72646144D01*
X47250500Y-72553856D01*
X47226614Y-72464712D01*
X47226611Y-72464706D01*
X47180473Y-72384794D01*
X47180470Y-72384791D01*
X47180469Y-72384788D01*
X47115212Y-72319531D01*
X47115209Y-72319529D01*
X47115205Y-72319526D01*
X47035293Y-72273388D01*
X47035290Y-72273387D01*
X47035289Y-72273386D01*
X47035288Y-72273386D01*
X46946144Y-72249500D01*
X46853856Y-72249500D01*
X46834744Y-72254620D01*
X46764895Y-72252956D01*
X46707033Y-72213792D01*
X46679531Y-72149563D01*
X46682879Y-72102753D01*
X46688000Y-72083644D01*
X46688000Y-71991356D01*
X46664114Y-71902212D01*
X46664111Y-71902206D01*
X46617973Y-71822294D01*
X46617970Y-71822291D01*
X46617969Y-71822288D01*
X46552712Y-71757031D01*
X46552709Y-71757029D01*
X46552705Y-71757026D01*
X46472793Y-71710888D01*
X46472790Y-71710887D01*
X46472789Y-71710886D01*
X46472788Y-71710886D01*
X46383644Y-71687000D01*
X46291356Y-71687000D01*
X46202212Y-71710886D01*
X46202211Y-71710886D01*
X46202209Y-71710887D01*
X46202206Y-71710888D01*
X46122294Y-71757026D01*
X46122285Y-71757033D01*
X46057033Y-71822285D01*
X46057026Y-71822294D01*
X46010888Y-71902206D01*
X46010887Y-71902209D01*
X45987000Y-71991356D01*
X21000500Y-71991356D01*
X21000500Y-71353856D01*
X49249500Y-71353856D01*
X49249500Y-71446143D01*
X49273387Y-71535290D01*
X49273388Y-71535293D01*
X49319526Y-71615205D01*
X49319529Y-71615209D01*
X49319531Y-71615212D01*
X49384788Y-71680469D01*
X49384791Y-71680470D01*
X49384794Y-71680473D01*
X49464706Y-71726611D01*
X49464707Y-71726611D01*
X49464712Y-71726614D01*
X49553856Y-71750500D01*
X49553858Y-71750500D01*
X49646142Y-71750500D01*
X49646144Y-71750500D01*
X49735288Y-71726614D01*
X49815212Y-71680469D01*
X49880469Y-71615212D01*
X49926614Y-71535288D01*
X49950500Y-71446144D01*
X49950500Y-71353856D01*
X49926614Y-71264712D01*
X49926611Y-71264706D01*
X49880473Y-71184794D01*
X49880470Y-71184791D01*
X49880469Y-71184788D01*
X49815212Y-71119531D01*
X49815209Y-71119529D01*
X49815205Y-71119526D01*
X49735293Y-71073388D01*
X49735290Y-71073387D01*
X49735289Y-71073386D01*
X49735288Y-71073386D01*
X49646144Y-71049500D01*
X49553856Y-71049500D01*
X49464712Y-71073386D01*
X49464711Y-71073386D01*
X49464709Y-71073387D01*
X49464706Y-71073388D01*
X49384794Y-71119526D01*
X49384785Y-71119533D01*
X49319533Y-71184785D01*
X49319526Y-71184794D01*
X49273388Y-71264706D01*
X49273387Y-71264709D01*
X49249500Y-71353856D01*
X21000500Y-71353856D01*
X21000500Y-70053856D01*
X46649500Y-70053856D01*
X46649500Y-70146143D01*
X46673387Y-70235290D01*
X46673388Y-70235293D01*
X46719526Y-70315205D01*
X46719529Y-70315209D01*
X46719531Y-70315212D01*
X46784788Y-70380469D01*
X46784791Y-70380470D01*
X46784794Y-70380473D01*
X46864706Y-70426611D01*
X46864707Y-70426611D01*
X46864712Y-70426614D01*
X46953856Y-70450500D01*
X46953858Y-70450500D01*
X47046142Y-70450500D01*
X47046144Y-70450500D01*
X47135288Y-70426614D01*
X47215212Y-70380469D01*
X47280469Y-70315212D01*
X47326614Y-70235288D01*
X47350500Y-70146144D01*
X47350500Y-70053856D01*
X47326614Y-69964712D01*
X47326611Y-69964706D01*
X47280473Y-69884794D01*
X47280470Y-69884791D01*
X47280469Y-69884788D01*
X47215212Y-69819531D01*
X47215209Y-69819529D01*
X47215205Y-69819526D01*
X47135293Y-69773388D01*
X47135290Y-69773387D01*
X47135289Y-69773386D01*
X47135288Y-69773386D01*
X47046144Y-69749500D01*
X46953856Y-69749500D01*
X46864712Y-69773386D01*
X46864711Y-69773386D01*
X46864709Y-69773387D01*
X46864706Y-69773388D01*
X46784794Y-69819526D01*
X46784785Y-69819533D01*
X46719533Y-69884785D01*
X46719526Y-69884794D01*
X46673388Y-69964706D01*
X46673387Y-69964709D01*
X46649500Y-70053856D01*
X21000500Y-70053856D01*
X21000500Y-68553149D01*
X36823793Y-68553149D01*
X36823793Y-68645437D01*
X36839703Y-68704815D01*
X36847680Y-68734583D01*
X36847681Y-68734586D01*
X36893819Y-68814498D01*
X36893822Y-68814502D01*
X36893824Y-68814505D01*
X36959081Y-68879762D01*
X36959084Y-68879763D01*
X36959087Y-68879766D01*
X37038999Y-68925904D01*
X37039000Y-68925904D01*
X37039005Y-68925907D01*
X37128149Y-68949793D01*
X37128151Y-68949793D01*
X37175500Y-68949793D01*
X37242539Y-68969478D01*
X37288294Y-69022282D01*
X37299500Y-69073793D01*
X37299500Y-69121143D01*
X37323387Y-69210290D01*
X37323388Y-69210293D01*
X37369526Y-69290205D01*
X37369529Y-69290209D01*
X37369531Y-69290212D01*
X37434788Y-69355469D01*
X37434791Y-69355470D01*
X37434794Y-69355473D01*
X37514706Y-69401611D01*
X37514707Y-69401611D01*
X37514712Y-69401614D01*
X37603856Y-69425500D01*
X37603858Y-69425500D01*
X37696142Y-69425500D01*
X37696144Y-69425500D01*
X37785288Y-69401614D01*
X37865212Y-69355469D01*
X37930469Y-69290212D01*
X37976614Y-69210288D01*
X38000500Y-69121144D01*
X38000500Y-69028856D01*
X37976614Y-68939712D01*
X37968644Y-68925907D01*
X37930473Y-68859794D01*
X37930470Y-68859791D01*
X37930469Y-68859788D01*
X37865212Y-68794531D01*
X37865209Y-68794529D01*
X37865205Y-68794526D01*
X37785293Y-68748388D01*
X37785290Y-68748387D01*
X37785289Y-68748386D01*
X37785288Y-68748386D01*
X37696144Y-68724500D01*
X37648793Y-68724500D01*
X37581754Y-68704815D01*
X37535999Y-68652011D01*
X37524793Y-68600500D01*
X37524793Y-68553151D01*
X37524793Y-68553149D01*
X37500907Y-68464005D01*
X37500904Y-68463999D01*
X37454766Y-68384087D01*
X37454763Y-68384084D01*
X37454762Y-68384081D01*
X37389505Y-68318824D01*
X37389502Y-68318822D01*
X37389498Y-68318819D01*
X37309586Y-68272681D01*
X37309583Y-68272680D01*
X37309582Y-68272679D01*
X37309581Y-68272679D01*
X37220437Y-68248793D01*
X37128149Y-68248793D01*
X37039005Y-68272679D01*
X37039004Y-68272679D01*
X37039002Y-68272680D01*
X37038999Y-68272681D01*
X36959087Y-68318819D01*
X36959078Y-68318826D01*
X36893826Y-68384078D01*
X36893819Y-68384087D01*
X36847681Y-68463999D01*
X36847680Y-68464002D01*
X36847679Y-68464004D01*
X36847679Y-68464005D01*
X36823793Y-68553149D01*
X21000500Y-68553149D01*
X21000500Y-66903149D01*
X44323793Y-66903149D01*
X44323793Y-66995437D01*
X44344490Y-67072681D01*
X44347680Y-67084583D01*
X44347681Y-67084586D01*
X44393819Y-67164498D01*
X44393822Y-67164502D01*
X44393824Y-67164505D01*
X44459081Y-67229762D01*
X44459084Y-67229763D01*
X44459087Y-67229766D01*
X44538999Y-67275904D01*
X44539000Y-67275904D01*
X44539005Y-67275907D01*
X44628149Y-67299793D01*
X44628151Y-67299793D01*
X44649793Y-67299793D01*
X44716832Y-67319478D01*
X44762587Y-67372282D01*
X44773793Y-67423793D01*
X44773793Y-67445436D01*
X44797680Y-67534583D01*
X44797681Y-67534586D01*
X44843819Y-67614498D01*
X44843822Y-67614502D01*
X44843824Y-67614505D01*
X44909081Y-67679762D01*
X44909084Y-67679763D01*
X44909087Y-67679766D01*
X44988999Y-67725904D01*
X44989000Y-67725904D01*
X44989005Y-67725907D01*
X45078149Y-67749793D01*
X45078151Y-67749793D01*
X45170435Y-67749793D01*
X45170437Y-67749793D01*
X45259581Y-67725907D01*
X45339505Y-67679762D01*
X45404762Y-67614505D01*
X45450907Y-67534581D01*
X45474793Y-67445437D01*
X45474793Y-67353149D01*
X45450907Y-67264005D01*
X45431139Y-67229766D01*
X45404766Y-67184087D01*
X45404763Y-67184084D01*
X45404762Y-67184081D01*
X45339505Y-67118824D01*
X45339502Y-67118822D01*
X45339498Y-67118819D01*
X45259586Y-67072681D01*
X45259583Y-67072680D01*
X45259582Y-67072679D01*
X45259581Y-67072679D01*
X45170437Y-67048793D01*
X45148793Y-67048793D01*
X45081754Y-67029108D01*
X45035999Y-66976304D01*
X45024793Y-66924793D01*
X45024793Y-66903151D01*
X45024793Y-66903149D01*
X45000907Y-66814005D01*
X45000904Y-66813999D01*
X44954766Y-66734087D01*
X44954763Y-66734084D01*
X44954762Y-66734081D01*
X44889505Y-66668824D01*
X44889502Y-66668822D01*
X44889498Y-66668819D01*
X44809586Y-66622681D01*
X44809583Y-66622680D01*
X44809582Y-66622679D01*
X44809581Y-66622679D01*
X44720437Y-66598793D01*
X44628149Y-66598793D01*
X44539005Y-66622679D01*
X44539004Y-66622679D01*
X44539002Y-66622680D01*
X44538999Y-66622681D01*
X44459087Y-66668819D01*
X44459078Y-66668826D01*
X44393826Y-66734078D01*
X44393819Y-66734087D01*
X44347681Y-66813999D01*
X44347680Y-66814002D01*
X44347679Y-66814004D01*
X44347679Y-66814005D01*
X44323793Y-66903149D01*
X21000500Y-66903149D01*
X21000500Y-65828856D01*
X34824500Y-65828856D01*
X34824500Y-65921143D01*
X34848387Y-66010290D01*
X34848388Y-66010293D01*
X34894526Y-66090205D01*
X34894529Y-66090209D01*
X34894531Y-66090212D01*
X34959788Y-66155469D01*
X34959791Y-66155470D01*
X34959794Y-66155473D01*
X35039706Y-66201611D01*
X35039707Y-66201611D01*
X35039712Y-66201614D01*
X35128856Y-66225500D01*
X35128858Y-66225500D01*
X35221142Y-66225500D01*
X35221144Y-66225500D01*
X35310288Y-66201614D01*
X35390212Y-66155469D01*
X35455469Y-66090212D01*
X35501614Y-66010288D01*
X35525500Y-65921144D01*
X35525500Y-65828856D01*
X36199500Y-65828856D01*
X36199500Y-65921143D01*
X36223387Y-66010290D01*
X36223388Y-66010293D01*
X36269526Y-66090205D01*
X36269529Y-66090209D01*
X36269531Y-66090212D01*
X36334788Y-66155469D01*
X36334791Y-66155470D01*
X36334794Y-66155473D01*
X36414706Y-66201611D01*
X36414707Y-66201611D01*
X36414712Y-66201614D01*
X36503856Y-66225500D01*
X36503858Y-66225500D01*
X36596142Y-66225500D01*
X36596144Y-66225500D01*
X36685288Y-66201614D01*
X36765212Y-66155469D01*
X36830469Y-66090212D01*
X36876614Y-66010288D01*
X36900500Y-65921144D01*
X36900500Y-65828856D01*
X36876614Y-65739712D01*
X36876611Y-65739706D01*
X36830473Y-65659794D01*
X36830470Y-65659791D01*
X36830469Y-65659788D01*
X36765212Y-65594531D01*
X36765209Y-65594529D01*
X36765205Y-65594526D01*
X36685293Y-65548388D01*
X36685290Y-65548387D01*
X36685289Y-65548386D01*
X36685288Y-65548386D01*
X36596144Y-65524500D01*
X36503856Y-65524500D01*
X36414712Y-65548386D01*
X36414711Y-65548386D01*
X36414709Y-65548387D01*
X36414706Y-65548388D01*
X36334794Y-65594526D01*
X36334785Y-65594533D01*
X36269533Y-65659785D01*
X36269526Y-65659794D01*
X36223388Y-65739706D01*
X36223387Y-65739709D01*
X36199500Y-65828856D01*
X35525500Y-65828856D01*
X35501614Y-65739712D01*
X35501611Y-65739706D01*
X35455473Y-65659794D01*
X35455470Y-65659791D01*
X35455469Y-65659788D01*
X35390212Y-65594531D01*
X35390209Y-65594529D01*
X35390205Y-65594526D01*
X35310293Y-65548388D01*
X35310290Y-65548387D01*
X35310289Y-65548386D01*
X35310288Y-65548386D01*
X35221144Y-65524500D01*
X35128856Y-65524500D01*
X35039712Y-65548386D01*
X35039711Y-65548386D01*
X35039709Y-65548387D01*
X35039706Y-65548388D01*
X34959794Y-65594526D01*
X34959785Y-65594533D01*
X34894533Y-65659785D01*
X34894526Y-65659794D01*
X34848388Y-65739706D01*
X34848387Y-65739709D01*
X34824500Y-65828856D01*
X21000500Y-65828856D01*
X21000500Y-64828856D01*
X34824500Y-64828856D01*
X34824500Y-64921144D01*
X34844406Y-64995436D01*
X34848387Y-65010290D01*
X34848388Y-65010293D01*
X34894526Y-65090205D01*
X34894529Y-65090209D01*
X34894531Y-65090212D01*
X34959788Y-65155469D01*
X34959791Y-65155470D01*
X34959794Y-65155473D01*
X35039706Y-65201611D01*
X35039707Y-65201611D01*
X35039712Y-65201614D01*
X35128856Y-65225500D01*
X35128858Y-65225500D01*
X35221142Y-65225500D01*
X35221144Y-65225500D01*
X35310288Y-65201614D01*
X35390212Y-65155469D01*
X35455469Y-65090212D01*
X35501614Y-65010288D01*
X35525500Y-64921144D01*
X35525500Y-64903149D01*
X45923793Y-64903149D01*
X45923793Y-64995437D01*
X45927772Y-65010288D01*
X45947680Y-65084583D01*
X45947681Y-65084586D01*
X45993819Y-65164498D01*
X45993822Y-65164502D01*
X45993824Y-65164505D01*
X46059081Y-65229762D01*
X46059084Y-65229763D01*
X46059087Y-65229766D01*
X46138999Y-65275904D01*
X46139000Y-65275904D01*
X46139005Y-65275907D01*
X46228149Y-65299793D01*
X46228151Y-65299793D01*
X46320435Y-65299793D01*
X46320437Y-65299793D01*
X46409581Y-65275907D01*
X46426560Y-65266103D01*
X46496543Y-65225699D01*
X46497752Y-65227794D01*
X46551453Y-65207023D01*
X46619900Y-65221049D01*
X46627961Y-65226229D01*
X46713999Y-65275904D01*
X46714000Y-65275904D01*
X46714005Y-65275907D01*
X46803149Y-65299793D01*
X46803151Y-65299793D01*
X46895435Y-65299793D01*
X46895437Y-65299793D01*
X46984581Y-65275907D01*
X47064505Y-65229762D01*
X47129762Y-65164505D01*
X47175907Y-65084581D01*
X47199793Y-64995437D01*
X47199793Y-64903149D01*
X47175907Y-64814005D01*
X47136793Y-64746258D01*
X47129766Y-64734087D01*
X47129763Y-64734084D01*
X47129762Y-64734081D01*
X47064505Y-64668824D01*
X47064502Y-64668822D01*
X47064498Y-64668819D01*
X46984586Y-64622681D01*
X46984583Y-64622680D01*
X46984582Y-64622679D01*
X46984581Y-64622679D01*
X46895437Y-64598793D01*
X46803149Y-64598793D01*
X46714005Y-64622679D01*
X46714004Y-64622679D01*
X46714002Y-64622680D01*
X46713999Y-64622681D01*
X46627043Y-64672887D01*
X46625834Y-64670794D01*
X46572109Y-64691564D01*
X46503664Y-64677525D01*
X46495601Y-64672343D01*
X46409586Y-64622681D01*
X46409583Y-64622680D01*
X46409582Y-64622679D01*
X46409581Y-64622679D01*
X46320437Y-64598793D01*
X46228149Y-64598793D01*
X46139005Y-64622679D01*
X46139004Y-64622679D01*
X46139002Y-64622680D01*
X46138999Y-64622681D01*
X46059087Y-64668819D01*
X46059078Y-64668826D01*
X45993826Y-64734078D01*
X45993819Y-64734087D01*
X45947681Y-64813999D01*
X45947680Y-64814002D01*
X45947679Y-64814004D01*
X45947679Y-64814005D01*
X45923793Y-64903149D01*
X35525500Y-64903149D01*
X35525500Y-64828856D01*
X35501614Y-64739712D01*
X35501611Y-64739706D01*
X35455473Y-64659794D01*
X35455470Y-64659791D01*
X35455469Y-64659788D01*
X35390212Y-64594531D01*
X35390209Y-64594529D01*
X35390205Y-64594526D01*
X35310293Y-64548388D01*
X35310290Y-64548387D01*
X35310289Y-64548386D01*
X35310288Y-64548386D01*
X35221144Y-64524500D01*
X35128856Y-64524500D01*
X35039712Y-64548386D01*
X35039711Y-64548386D01*
X35039709Y-64548387D01*
X35039706Y-64548388D01*
X34959794Y-64594526D01*
X34959785Y-64594533D01*
X34894533Y-64659785D01*
X34894526Y-64659794D01*
X34848388Y-64739706D01*
X34848387Y-64739709D01*
X34848386Y-64739711D01*
X34848386Y-64739712D01*
X34824500Y-64828856D01*
X21000500Y-64828856D01*
X21000500Y-61124500D01*
X21020185Y-61057461D01*
X21072989Y-61011706D01*
X21124500Y-61000500D01*
X58875500Y-61000500D01*
X58942539Y-61020185D01*
G37*
%TD.AperFunction*%
%TA.AperFunction,Conductor*%
G36*
X58942539Y-21020185D02*
G01*
X58988294Y-21072989D01*
X58999500Y-21124500D01*
X58999500Y-58875500D01*
X58979815Y-58942539D01*
X58927011Y-58988294D01*
X58875500Y-58999500D01*
X21124500Y-58999500D01*
X21057461Y-58979815D01*
X21011706Y-58927011D01*
X21000500Y-58875500D01*
X21000500Y-51156245D01*
X47768080Y-51156245D01*
X48361759Y-51156245D01*
X48348822Y-51187478D01*
X48320000Y-51332376D01*
X48320000Y-51480114D01*
X48348822Y-51625012D01*
X48361759Y-51656245D01*
X47768080Y-51656245D01*
X47777625Y-51716517D01*
X47842075Y-51914870D01*
X47936759Y-52100696D01*
X48059349Y-52269426D01*
X48206818Y-52416895D01*
X48375548Y-52539485D01*
X48561374Y-52634169D01*
X48759727Y-52698619D01*
X48820000Y-52708165D01*
X48820000Y-52114485D01*
X48851233Y-52127423D01*
X48996131Y-52156245D01*
X49143869Y-52156245D01*
X49288767Y-52127423D01*
X49320000Y-52114485D01*
X49320000Y-52708164D01*
X49380272Y-52698619D01*
X49578625Y-52634169D01*
X49764451Y-52539485D01*
X49933181Y-52416895D01*
X50080650Y-52269426D01*
X50203240Y-52100696D01*
X50297924Y-51914870D01*
X50362374Y-51716517D01*
X50371920Y-51656245D01*
X49778241Y-51656245D01*
X49791178Y-51625012D01*
X49820000Y-51480114D01*
X49820000Y-51332376D01*
X49791178Y-51187478D01*
X49778241Y-51156245D01*
X50371920Y-51156245D01*
X50362374Y-51095972D01*
X50297924Y-50897619D01*
X50203240Y-50711793D01*
X50080650Y-50543063D01*
X49933181Y-50395594D01*
X49764451Y-50273004D01*
X49578625Y-50178320D01*
X49380268Y-50113870D01*
X49320000Y-50104324D01*
X49320000Y-50698004D01*
X49288767Y-50685067D01*
X49143869Y-50656245D01*
X48996131Y-50656245D01*
X48851233Y-50685067D01*
X48820000Y-50698004D01*
X48820000Y-50104324D01*
X48819999Y-50104324D01*
X48759731Y-50113870D01*
X48561374Y-50178320D01*
X48375548Y-50273004D01*
X48206818Y-50395594D01*
X48059349Y-50543063D01*
X47936759Y-50711793D01*
X47842075Y-50897619D01*
X47777625Y-51095972D01*
X47768080Y-51156245D01*
X21000500Y-51156245D01*
X21000500Y-48638543D01*
X31499499Y-48638543D01*
X31537947Y-48831829D01*
X31537950Y-48831839D01*
X31613364Y-49013907D01*
X31613371Y-49013920D01*
X31722860Y-49177781D01*
X31722863Y-49177785D01*
X31862214Y-49317136D01*
X31862218Y-49317139D01*
X32026079Y-49426628D01*
X32026092Y-49426635D01*
X32208160Y-49502049D01*
X32208165Y-49502051D01*
X32208169Y-49502051D01*
X32208170Y-49502052D01*
X32401456Y-49540500D01*
X32401459Y-49540500D01*
X32598543Y-49540500D01*
X32728582Y-49514632D01*
X32791835Y-49502051D01*
X32973914Y-49426632D01*
X33137782Y-49317139D01*
X33277139Y-49177782D01*
X33386632Y-49013914D01*
X33462051Y-48831835D01*
X33500500Y-48638541D01*
X33500500Y-48441459D01*
X33500500Y-48441456D01*
X33462052Y-48248170D01*
X33462051Y-48248169D01*
X33462051Y-48248165D01*
X33423568Y-48155258D01*
X33386632Y-48066085D01*
X33277139Y-47902218D01*
X33277136Y-47902214D01*
X33169706Y-47794784D01*
X33169702Y-47794781D01*
X33137782Y-47762861D01*
X33026443Y-47688466D01*
X33026438Y-47688463D01*
X32973920Y-47653371D01*
X32973907Y-47653364D01*
X32791839Y-47577950D01*
X32791829Y-47577947D01*
X32651330Y-47550000D01*
X44161835Y-47550000D01*
X44755514Y-47550000D01*
X44742577Y-47581233D01*
X44713755Y-47726131D01*
X44713755Y-47873869D01*
X44742577Y-48018767D01*
X44755514Y-48050000D01*
X44161835Y-48050000D01*
X44171380Y-48110272D01*
X44235830Y-48308625D01*
X44330514Y-48494451D01*
X44453104Y-48663181D01*
X44600573Y-48810650D01*
X44769303Y-48933240D01*
X44955129Y-49027924D01*
X45153482Y-49092374D01*
X45213755Y-49101920D01*
X45213755Y-48508240D01*
X45244988Y-48521178D01*
X45389886Y-48550000D01*
X45537624Y-48550000D01*
X45682522Y-48521178D01*
X45713755Y-48508240D01*
X45713755Y-49101919D01*
X45774027Y-49092374D01*
X45972380Y-49027924D01*
X46158206Y-48933240D01*
X46326936Y-48810650D01*
X46474405Y-48663181D01*
X46596995Y-48494451D01*
X46691679Y-48308625D01*
X46756129Y-48110272D01*
X46765675Y-48050000D01*
X46171996Y-48050000D01*
X46184933Y-48018767D01*
X46213755Y-47873869D01*
X46213755Y-47726131D01*
X46209654Y-47705513D01*
X47869500Y-47705513D01*
X47869500Y-47894486D01*
X47899059Y-48081118D01*
X47957454Y-48260836D01*
X48019478Y-48382563D01*
X48043240Y-48429199D01*
X48154310Y-48582073D01*
X48287927Y-48715690D01*
X48440801Y-48826760D01*
X48520347Y-48867290D01*
X48609163Y-48912545D01*
X48609165Y-48912545D01*
X48609168Y-48912547D01*
X48672854Y-48933240D01*
X48788881Y-48970940D01*
X48975514Y-49000500D01*
X48975519Y-49000500D01*
X49164486Y-49000500D01*
X49351118Y-48970940D01*
X49530832Y-48912547D01*
X49699199Y-48826760D01*
X49852073Y-48715690D01*
X49985690Y-48582073D01*
X50096760Y-48429199D01*
X50182547Y-48260832D01*
X50240940Y-48081118D01*
X50269275Y-47902218D01*
X50270500Y-47894485D01*
X50270500Y-47705514D01*
X50254811Y-47606462D01*
X50254811Y-47606460D01*
X50245869Y-47550000D01*
X51374325Y-47550000D01*
X51968004Y-47550000D01*
X51955067Y-47581233D01*
X51926245Y-47726131D01*
X51926245Y-47873869D01*
X51955067Y-48018767D01*
X51968004Y-48050000D01*
X51374325Y-48050000D01*
X51383870Y-48110272D01*
X51448320Y-48308625D01*
X51543004Y-48494451D01*
X51665594Y-48663181D01*
X51813063Y-48810650D01*
X51981793Y-48933240D01*
X52167619Y-49027924D01*
X52365972Y-49092374D01*
X52426245Y-49101920D01*
X52426245Y-48508240D01*
X52457478Y-48521178D01*
X52602376Y-48550000D01*
X52750114Y-48550000D01*
X52895012Y-48521178D01*
X52926245Y-48508240D01*
X52926245Y-49101919D01*
X52986517Y-49092374D01*
X53184870Y-49027924D01*
X53370696Y-48933240D01*
X53539426Y-48810650D01*
X53686895Y-48663181D01*
X53809485Y-48494451D01*
X53904169Y-48308625D01*
X53968619Y-48110272D01*
X53978165Y-48050000D01*
X53384486Y-48050000D01*
X53397423Y-48018767D01*
X53426245Y-47873869D01*
X53426245Y-47726131D01*
X53397423Y-47581233D01*
X53384486Y-47550000D01*
X53978165Y-47550000D01*
X53968619Y-47489727D01*
X53904169Y-47291374D01*
X53809485Y-47105548D01*
X53686895Y-46936818D01*
X53539426Y-46789349D01*
X53370696Y-46666759D01*
X53184870Y-46572075D01*
X52986513Y-46507625D01*
X52926245Y-46498079D01*
X52926245Y-47091759D01*
X52895012Y-47078822D01*
X52750114Y-47050000D01*
X52602376Y-47050000D01*
X52457478Y-47078822D01*
X52426245Y-47091759D01*
X52426245Y-46498079D01*
X52426244Y-46498079D01*
X52365976Y-46507625D01*
X52167619Y-46572075D01*
X51981793Y-46666759D01*
X51813063Y-46789349D01*
X51665594Y-46936818D01*
X51543004Y-47105548D01*
X51448320Y-47291374D01*
X51383870Y-47489727D01*
X51374325Y-47550000D01*
X50245869Y-47550000D01*
X50240940Y-47518882D01*
X50240940Y-47518881D01*
X50182545Y-47339163D01*
X50096759Y-47170800D01*
X49985690Y-47017927D01*
X49852073Y-46884310D01*
X49699199Y-46773240D01*
X49530836Y-46687454D01*
X49351118Y-46629059D01*
X49164486Y-46599500D01*
X49164481Y-46599500D01*
X48975519Y-46599500D01*
X48975514Y-46599500D01*
X48788881Y-46629059D01*
X48609163Y-46687454D01*
X48440800Y-46773240D01*
X48353579Y-46836610D01*
X48287927Y-46884310D01*
X48287925Y-46884312D01*
X48287924Y-46884312D01*
X48154312Y-47017924D01*
X48154312Y-47017925D01*
X48154310Y-47017927D01*
X48110067Y-47078822D01*
X48043240Y-47170800D01*
X47957454Y-47339163D01*
X47899059Y-47518881D01*
X47869500Y-47705513D01*
X46209654Y-47705513D01*
X46184933Y-47581233D01*
X46171996Y-47550000D01*
X46765675Y-47550000D01*
X46756129Y-47489727D01*
X46691679Y-47291374D01*
X46596995Y-47105548D01*
X46474405Y-46936818D01*
X46326936Y-46789349D01*
X46158206Y-46666759D01*
X45972380Y-46572075D01*
X45774023Y-46507625D01*
X45713755Y-46498079D01*
X45713755Y-47091759D01*
X45682522Y-47078822D01*
X45537624Y-47050000D01*
X45389886Y-47050000D01*
X45244988Y-47078822D01*
X45213755Y-47091759D01*
X45213755Y-46498079D01*
X45213754Y-46498079D01*
X45153486Y-46507625D01*
X44955129Y-46572075D01*
X44769303Y-46666759D01*
X44600573Y-46789349D01*
X44453104Y-46936818D01*
X44330514Y-47105548D01*
X44235830Y-47291374D01*
X44171380Y-47489727D01*
X44161835Y-47550000D01*
X32651330Y-47550000D01*
X32598543Y-47539500D01*
X32598541Y-47539500D01*
X32401459Y-47539500D01*
X32401457Y-47539500D01*
X32208170Y-47577947D01*
X32208160Y-47577950D01*
X32026092Y-47653364D01*
X32026079Y-47653371D01*
X31862218Y-47762860D01*
X31862214Y-47762863D01*
X31722863Y-47902214D01*
X31722860Y-47902218D01*
X31613371Y-48066079D01*
X31613364Y-48066092D01*
X31537950Y-48248160D01*
X31537947Y-48248170D01*
X31499500Y-48441456D01*
X31499500Y-48441459D01*
X31499500Y-48638541D01*
X31499500Y-48638543D01*
X31499499Y-48638543D01*
X21000500Y-48638543D01*
X21000500Y-46864822D01*
X31499499Y-46864822D01*
X31508231Y-46908717D01*
X31508232Y-46908721D01*
X31508233Y-46908722D01*
X31541496Y-46958504D01*
X31591278Y-46991767D01*
X31591281Y-46991767D01*
X31591282Y-46991768D01*
X31635177Y-47000500D01*
X31635180Y-47000500D01*
X33364822Y-47000500D01*
X33408717Y-46991768D01*
X33408717Y-46991767D01*
X33408722Y-46991767D01*
X33458504Y-46958504D01*
X33491767Y-46908722D01*
X33500500Y-46864820D01*
X33500500Y-45135180D01*
X33500500Y-45135177D01*
X33491768Y-45091282D01*
X33491767Y-45091281D01*
X33491767Y-45091278D01*
X33458504Y-45041496D01*
X33458503Y-45041495D01*
X33408724Y-45008234D01*
X33408717Y-45008231D01*
X33364822Y-44999500D01*
X33364820Y-44999500D01*
X31635180Y-44999500D01*
X31635178Y-44999500D01*
X31591282Y-45008231D01*
X31591275Y-45008234D01*
X31541496Y-45041495D01*
X31541495Y-45041496D01*
X31508234Y-45091275D01*
X31508231Y-45091282D01*
X31499500Y-45135177D01*
X31499500Y-45135180D01*
X31499500Y-46864820D01*
X31499500Y-46864822D01*
X31499499Y-46864822D01*
X21000500Y-46864822D01*
X21000500Y-43943755D01*
X47768080Y-43943755D01*
X48361759Y-43943755D01*
X48348822Y-43974988D01*
X48320000Y-44119886D01*
X48320000Y-44267624D01*
X48348822Y-44412522D01*
X48361759Y-44443755D01*
X47768080Y-44443755D01*
X47777625Y-44504027D01*
X47842075Y-44702380D01*
X47936759Y-44888206D01*
X48059349Y-45056936D01*
X48206818Y-45204405D01*
X48375548Y-45326995D01*
X48561374Y-45421679D01*
X48759727Y-45486129D01*
X48820000Y-45495675D01*
X48820000Y-44901995D01*
X48851233Y-44914933D01*
X48996131Y-44943755D01*
X49143869Y-44943755D01*
X49288767Y-44914933D01*
X49320000Y-44901995D01*
X49320000Y-45495674D01*
X49380272Y-45486129D01*
X49578625Y-45421679D01*
X49764451Y-45326995D01*
X49933181Y-45204405D01*
X50080650Y-45056936D01*
X50203240Y-44888206D01*
X50297924Y-44702380D01*
X50362374Y-44504027D01*
X50371920Y-44443755D01*
X49778241Y-44443755D01*
X49791178Y-44412522D01*
X49820000Y-44267624D01*
X49820000Y-44119886D01*
X49791178Y-43974988D01*
X49778241Y-43943755D01*
X50371920Y-43943755D01*
X50362374Y-43883482D01*
X50297924Y-43685129D01*
X50203240Y-43499303D01*
X50080650Y-43330573D01*
X49933181Y-43183104D01*
X49764451Y-43060514D01*
X49578625Y-42965830D01*
X49380268Y-42901380D01*
X49320000Y-42891834D01*
X49320000Y-43485514D01*
X49288767Y-43472577D01*
X49143869Y-43443755D01*
X48996131Y-43443755D01*
X48851233Y-43472577D01*
X48820000Y-43485514D01*
X48820000Y-42891834D01*
X48819999Y-42891834D01*
X48759731Y-42901380D01*
X48561374Y-42965830D01*
X48375548Y-43060514D01*
X48206818Y-43183104D01*
X48059349Y-43330573D01*
X47936759Y-43499303D01*
X47842075Y-43685129D01*
X47777625Y-43883482D01*
X47768080Y-43943755D01*
X21000500Y-43943755D01*
X21000500Y-40076116D01*
X37957199Y-40076116D01*
X37986897Y-40225411D01*
X37986900Y-40225421D01*
X38045152Y-40366056D01*
X38045154Y-40366060D01*
X38129723Y-40492626D01*
X38129729Y-40492634D01*
X38237365Y-40600270D01*
X38237373Y-40600276D01*
X38363939Y-40684845D01*
X38363943Y-40684847D01*
X38504578Y-40743099D01*
X38504583Y-40743101D01*
X38504587Y-40743101D01*
X38504588Y-40743102D01*
X38653883Y-40772800D01*
X38653886Y-40772800D01*
X38806116Y-40772800D01*
X38906556Y-40752820D01*
X38955417Y-40743101D01*
X39096058Y-40684846D01*
X39130458Y-40661860D01*
X39197134Y-40640982D01*
X39264515Y-40659466D01*
X39311205Y-40711444D01*
X39322382Y-40780414D01*
X39302452Y-40833852D01*
X39271289Y-40880490D01*
X39271285Y-40880497D01*
X39213502Y-41019999D01*
X39213502Y-41020000D01*
X39729146Y-41020000D01*
X39705287Y-41043859D01*
X39656799Y-41127842D01*
X39631700Y-41221512D01*
X39631700Y-41318488D01*
X39656799Y-41412158D01*
X39705287Y-41496141D01*
X39729146Y-41520000D01*
X39213502Y-41520000D01*
X39271285Y-41659502D01*
X39271290Y-41659511D01*
X39361277Y-41794185D01*
X39361280Y-41794189D01*
X39475810Y-41908719D01*
X39475814Y-41908722D01*
X39610488Y-41998709D01*
X39610497Y-41998714D01*
X39749999Y-42056497D01*
X39750000Y-42056497D01*
X39750000Y-41540854D01*
X39773859Y-41564713D01*
X39857842Y-41613201D01*
X39951512Y-41638300D01*
X40048488Y-41638300D01*
X40142158Y-41613201D01*
X40226141Y-41564713D01*
X40250000Y-41540854D01*
X40250000Y-42056497D01*
X40389502Y-41998714D01*
X40389511Y-41998709D01*
X40524185Y-41908722D01*
X40524189Y-41908719D01*
X40638719Y-41794189D01*
X40638722Y-41794185D01*
X40728709Y-41659511D01*
X40728714Y-41659502D01*
X40786498Y-41520000D01*
X40270854Y-41520000D01*
X40294713Y-41496141D01*
X40343201Y-41412158D01*
X40368300Y-41318488D01*
X40368300Y-41221512D01*
X40343201Y-41127842D01*
X40294713Y-41043859D01*
X40270854Y-41020000D01*
X40786498Y-41020000D01*
X40786497Y-41019999D01*
X40728714Y-40880497D01*
X40728709Y-40880489D01*
X40697548Y-40833853D01*
X40676670Y-40767176D01*
X40695154Y-40699796D01*
X40747133Y-40653105D01*
X40816103Y-40641929D01*
X40869540Y-40661859D01*
X40903942Y-40684846D01*
X40903943Y-40684846D01*
X40903944Y-40684847D01*
X41044578Y-40743099D01*
X41044583Y-40743101D01*
X41044587Y-40743101D01*
X41044588Y-40743102D01*
X41193883Y-40772800D01*
X41193886Y-40772800D01*
X41346116Y-40772800D01*
X41446556Y-40752820D01*
X41495417Y-40743101D01*
X41636058Y-40684846D01*
X41636060Y-40684845D01*
X41701705Y-40640982D01*
X41762631Y-40600273D01*
X41870273Y-40492631D01*
X41931860Y-40400459D01*
X41954845Y-40366060D01*
X41954847Y-40366056D01*
X42013099Y-40225421D01*
X42013101Y-40225417D01*
X42042800Y-40076114D01*
X42042800Y-39923886D01*
X42042800Y-39923883D01*
X42013102Y-39774588D01*
X42013101Y-39774587D01*
X42013101Y-39774583D01*
X42013099Y-39774578D01*
X41954847Y-39633943D01*
X41954845Y-39633939D01*
X41870276Y-39507373D01*
X41870270Y-39507365D01*
X41762634Y-39399729D01*
X41762626Y-39399723D01*
X41636060Y-39315154D01*
X41636056Y-39315152D01*
X41495421Y-39256900D01*
X41495411Y-39256897D01*
X41346116Y-39227200D01*
X41346114Y-39227200D01*
X41193886Y-39227200D01*
X41193884Y-39227200D01*
X41044588Y-39256897D01*
X41044578Y-39256900D01*
X40903943Y-39315152D01*
X40903939Y-39315154D01*
X40777373Y-39399723D01*
X40777365Y-39399729D01*
X40669729Y-39507365D01*
X40669723Y-39507373D01*
X40585154Y-39633939D01*
X40585152Y-39633943D01*
X40526900Y-39774578D01*
X40526897Y-39774588D01*
X40497200Y-39923883D01*
X40497200Y-39923886D01*
X40497200Y-40076114D01*
X40497200Y-40076116D01*
X40497199Y-40076116D01*
X40526897Y-40225411D01*
X40526900Y-40225421D01*
X40585152Y-40366055D01*
X40608140Y-40400459D01*
X40629018Y-40467137D01*
X40610533Y-40534517D01*
X40558555Y-40581207D01*
X40489585Y-40592383D01*
X40436148Y-40572453D01*
X40389501Y-40541285D01*
X40250000Y-40483501D01*
X40250000Y-40999146D01*
X40226141Y-40975287D01*
X40142158Y-40926799D01*
X40048488Y-40901700D01*
X39951512Y-40901700D01*
X39857842Y-40926799D01*
X39773859Y-40975287D01*
X39750000Y-40999146D01*
X39750000Y-40483501D01*
X39610496Y-40541286D01*
X39610494Y-40541287D01*
X39563850Y-40572453D01*
X39497172Y-40593330D01*
X39429792Y-40574844D01*
X39383103Y-40522865D01*
X39371928Y-40453895D01*
X39391858Y-40400461D01*
X39414846Y-40366058D01*
X39473101Y-40225417D01*
X39502800Y-40076114D01*
X39502800Y-39923886D01*
X39502800Y-39923883D01*
X39473102Y-39774588D01*
X39473101Y-39774587D01*
X39473101Y-39774583D01*
X39473099Y-39774578D01*
X39414847Y-39633943D01*
X39414845Y-39633939D01*
X39330276Y-39507373D01*
X39330270Y-39507365D01*
X39222634Y-39399729D01*
X39222626Y-39399723D01*
X39096060Y-39315154D01*
X39096056Y-39315152D01*
X38955421Y-39256900D01*
X38955411Y-39256897D01*
X38806116Y-39227200D01*
X38806114Y-39227200D01*
X38653886Y-39227200D01*
X38653884Y-39227200D01*
X38504588Y-39256897D01*
X38504578Y-39256900D01*
X38363943Y-39315152D01*
X38363939Y-39315154D01*
X38237373Y-39399723D01*
X38237365Y-39399729D01*
X38129729Y-39507365D01*
X38129723Y-39507373D01*
X38045154Y-39633939D01*
X38045152Y-39633943D01*
X37986900Y-39774578D01*
X37986897Y-39774588D01*
X37957200Y-39923883D01*
X37957200Y-39923886D01*
X37957200Y-40076114D01*
X37957200Y-40076116D01*
X37957199Y-40076116D01*
X21000500Y-40076116D01*
X21000500Y-29373711D01*
X25654500Y-29373711D01*
X25654500Y-29616288D01*
X25686161Y-29856785D01*
X25748947Y-30091104D01*
X25841773Y-30315205D01*
X25841776Y-30315212D01*
X25963064Y-30525289D01*
X25963066Y-30525292D01*
X25963067Y-30525293D01*
X26110733Y-30717736D01*
X26110739Y-30717743D01*
X26282256Y-30889260D01*
X26282262Y-30889265D01*
X26474711Y-31036936D01*
X26684788Y-31158224D01*
X26908900Y-31251054D01*
X27143211Y-31313838D01*
X27323586Y-31337584D01*
X27383711Y-31345500D01*
X27383712Y-31345500D01*
X27626289Y-31345500D01*
X27674388Y-31339167D01*
X27866789Y-31313838D01*
X28101100Y-31251054D01*
X28325212Y-31158224D01*
X28535289Y-31036936D01*
X28727738Y-30889265D01*
X28790699Y-30826304D01*
X34989500Y-30826304D01*
X34989500Y-31003695D01*
X35024103Y-31177658D01*
X35024106Y-31177667D01*
X35091983Y-31341540D01*
X35091990Y-31341553D01*
X35190535Y-31489034D01*
X35190538Y-31489038D01*
X35315961Y-31614461D01*
X35315965Y-31614464D01*
X35463446Y-31713009D01*
X35463459Y-31713016D01*
X35569349Y-31756876D01*
X35627334Y-31780894D01*
X35627336Y-31780894D01*
X35627341Y-31780896D01*
X35801304Y-31815499D01*
X35801307Y-31815500D01*
X35801309Y-31815500D01*
X35978693Y-31815500D01*
X35978694Y-31815499D01*
X36036682Y-31803964D01*
X36152658Y-31780896D01*
X36152661Y-31780894D01*
X36152666Y-31780894D01*
X36316547Y-31713013D01*
X36464035Y-31614464D01*
X36464038Y-31614461D01*
X36470867Y-31607633D01*
X36589461Y-31489038D01*
X36589464Y-31489035D01*
X36688013Y-31341547D01*
X36755894Y-31177666D01*
X36759762Y-31158224D01*
X36790499Y-31003695D01*
X36790500Y-31003693D01*
X36790500Y-30826308D01*
X36790499Y-30826303D01*
X36789529Y-30821428D01*
X37680000Y-30821428D01*
X37680000Y-31008571D01*
X37716506Y-31192097D01*
X37716508Y-31192105D01*
X37788119Y-31364990D01*
X37788126Y-31365002D01*
X37803473Y-31387971D01*
X37803474Y-31387972D01*
X38147037Y-31044409D01*
X38164075Y-31107993D01*
X38229901Y-31222007D01*
X38322993Y-31315099D01*
X38437007Y-31380925D01*
X38500590Y-31397962D01*
X38157027Y-31741524D01*
X38157027Y-31741525D01*
X38180007Y-31756879D01*
X38352894Y-31828491D01*
X38352902Y-31828493D01*
X38536428Y-31864999D01*
X38536431Y-31865000D01*
X38723569Y-31865000D01*
X38723571Y-31864999D01*
X38907097Y-31828493D01*
X38907105Y-31828491D01*
X39079992Y-31756879D01*
X39079998Y-31756876D01*
X39102971Y-31741525D01*
X39102972Y-31741524D01*
X38759410Y-31397962D01*
X38822993Y-31380925D01*
X38937007Y-31315099D01*
X39030099Y-31222007D01*
X39095925Y-31107993D01*
X39112962Y-31044410D01*
X39456524Y-31387972D01*
X39456525Y-31387971D01*
X39471876Y-31364998D01*
X39471879Y-31364992D01*
X39543491Y-31192105D01*
X39543493Y-31192097D01*
X39579999Y-31008571D01*
X39580000Y-31008569D01*
X39580000Y-30826304D01*
X40469500Y-30826304D01*
X40469500Y-31003695D01*
X40504103Y-31177658D01*
X40504106Y-31177667D01*
X40571983Y-31341540D01*
X40571990Y-31341553D01*
X40670535Y-31489034D01*
X40670538Y-31489038D01*
X40795961Y-31614461D01*
X40795965Y-31614464D01*
X40943446Y-31713009D01*
X40943459Y-31713016D01*
X41049349Y-31756876D01*
X41107334Y-31780894D01*
X41107336Y-31780894D01*
X41107341Y-31780896D01*
X41281304Y-31815499D01*
X41281307Y-31815500D01*
X41281309Y-31815500D01*
X41458693Y-31815500D01*
X41458694Y-31815499D01*
X41516682Y-31803964D01*
X41632658Y-31780896D01*
X41632661Y-31780894D01*
X41632666Y-31780894D01*
X41796547Y-31713013D01*
X41944035Y-31614464D01*
X42069464Y-31489035D01*
X42168013Y-31341547D01*
X42235894Y-31177666D01*
X42239762Y-31158224D01*
X42270499Y-31003695D01*
X42270500Y-31003693D01*
X42270500Y-30826306D01*
X42270499Y-30826304D01*
X43209500Y-30826304D01*
X43209500Y-31003695D01*
X43244103Y-31177658D01*
X43244106Y-31177667D01*
X43311983Y-31341540D01*
X43311990Y-31341553D01*
X43410535Y-31489034D01*
X43410538Y-31489038D01*
X43535961Y-31614461D01*
X43535965Y-31614464D01*
X43683446Y-31713009D01*
X43683459Y-31713016D01*
X43789349Y-31756876D01*
X43847334Y-31780894D01*
X43847336Y-31780894D01*
X43847341Y-31780896D01*
X44021304Y-31815499D01*
X44021307Y-31815500D01*
X44021309Y-31815500D01*
X44198693Y-31815500D01*
X44198694Y-31815499D01*
X44256682Y-31803964D01*
X44372658Y-31780896D01*
X44372661Y-31780894D01*
X44372666Y-31780894D01*
X44536547Y-31713013D01*
X44684035Y-31614464D01*
X44809464Y-31489035D01*
X44908013Y-31341547D01*
X44975894Y-31177666D01*
X44979762Y-31158224D01*
X45010499Y-31003695D01*
X45010500Y-31003693D01*
X45010500Y-30826306D01*
X45010499Y-30826304D01*
X44975896Y-30652341D01*
X44975893Y-30652332D01*
X44908016Y-30488459D01*
X44908009Y-30488446D01*
X44809464Y-30340965D01*
X44809461Y-30340961D01*
X44684038Y-30215538D01*
X44684034Y-30215535D01*
X44536553Y-30116990D01*
X44536540Y-30116983D01*
X44372667Y-30049106D01*
X44372658Y-30049103D01*
X44198694Y-30014500D01*
X44198691Y-30014500D01*
X44021309Y-30014500D01*
X44021306Y-30014500D01*
X43847341Y-30049103D01*
X43847332Y-30049106D01*
X43683459Y-30116983D01*
X43683446Y-30116990D01*
X43535965Y-30215535D01*
X43535961Y-30215538D01*
X43410538Y-30340961D01*
X43410535Y-30340965D01*
X43311990Y-30488446D01*
X43311983Y-30488459D01*
X43244106Y-30652332D01*
X43244103Y-30652341D01*
X43209500Y-30826304D01*
X42270499Y-30826304D01*
X42235896Y-30652341D01*
X42235893Y-30652332D01*
X42168016Y-30488459D01*
X42168009Y-30488446D01*
X42069464Y-30340965D01*
X42069461Y-30340961D01*
X41944038Y-30215538D01*
X41944034Y-30215535D01*
X41796553Y-30116990D01*
X41796540Y-30116983D01*
X41632667Y-30049106D01*
X41632658Y-30049103D01*
X41458694Y-30014500D01*
X41458691Y-30014500D01*
X41281309Y-30014500D01*
X41281306Y-30014500D01*
X41107341Y-30049103D01*
X41107332Y-30049106D01*
X40943459Y-30116983D01*
X40943446Y-30116990D01*
X40795965Y-30215535D01*
X40795961Y-30215538D01*
X40670538Y-30340961D01*
X40670535Y-30340965D01*
X40571990Y-30488446D01*
X40571983Y-30488459D01*
X40504106Y-30652332D01*
X40504103Y-30652341D01*
X40469500Y-30826304D01*
X39580000Y-30826304D01*
X39580000Y-30821430D01*
X39579999Y-30821428D01*
X39543493Y-30637902D01*
X39543491Y-30637894D01*
X39471879Y-30465007D01*
X39456524Y-30442027D01*
X39112962Y-30785589D01*
X39095925Y-30722007D01*
X39030099Y-30607993D01*
X38937007Y-30514901D01*
X38822993Y-30449075D01*
X38759409Y-30432037D01*
X39102972Y-30088474D01*
X39102971Y-30088473D01*
X39080002Y-30073126D01*
X39079990Y-30073119D01*
X38907105Y-30001508D01*
X38907097Y-30001506D01*
X38723570Y-29965000D01*
X38536430Y-29965000D01*
X38352902Y-30001506D01*
X38352894Y-30001508D01*
X38180005Y-30073121D01*
X38157027Y-30088473D01*
X38157027Y-30088474D01*
X38500591Y-30432037D01*
X38437007Y-30449075D01*
X38322993Y-30514901D01*
X38229901Y-30607993D01*
X38164075Y-30722007D01*
X38147037Y-30785590D01*
X37803474Y-30442027D01*
X37803473Y-30442027D01*
X37788121Y-30465005D01*
X37716508Y-30637894D01*
X37716506Y-30637902D01*
X37680000Y-30821428D01*
X36789529Y-30821428D01*
X36755896Y-30652341D01*
X36755893Y-30652332D01*
X36688016Y-30488459D01*
X36688009Y-30488446D01*
X36589464Y-30340965D01*
X36589461Y-30340961D01*
X36464038Y-30215538D01*
X36464034Y-30215535D01*
X36316553Y-30116990D01*
X36316540Y-30116983D01*
X36152667Y-30049106D01*
X36152658Y-30049103D01*
X35978694Y-30014500D01*
X35978691Y-30014500D01*
X35801309Y-30014500D01*
X35801306Y-30014500D01*
X35627341Y-30049103D01*
X35627332Y-30049106D01*
X35463459Y-30116983D01*
X35463446Y-30116990D01*
X35315965Y-30215535D01*
X35315961Y-30215538D01*
X35190538Y-30340961D01*
X35190535Y-30340965D01*
X35091990Y-30488446D01*
X35091983Y-30488459D01*
X35024106Y-30652332D01*
X35024103Y-30652341D01*
X34989500Y-30826304D01*
X28790699Y-30826304D01*
X28795575Y-30821428D01*
X28884468Y-30732536D01*
X28899260Y-30717743D01*
X28899265Y-30717738D01*
X29046936Y-30525289D01*
X29168224Y-30315212D01*
X29261054Y-30091100D01*
X29323838Y-29856789D01*
X29355500Y-29616288D01*
X29355500Y-29373712D01*
X29355500Y-29373711D01*
X50644500Y-29373711D01*
X50644500Y-29616288D01*
X50676161Y-29856785D01*
X50738947Y-30091104D01*
X50831773Y-30315205D01*
X50831776Y-30315212D01*
X50953064Y-30525289D01*
X50953066Y-30525292D01*
X50953067Y-30525293D01*
X51100733Y-30717736D01*
X51100739Y-30717743D01*
X51272256Y-30889260D01*
X51272262Y-30889265D01*
X51464711Y-31036936D01*
X51674788Y-31158224D01*
X51898900Y-31251054D01*
X52133211Y-31313838D01*
X52313586Y-31337584D01*
X52373711Y-31345500D01*
X52373712Y-31345500D01*
X52616289Y-31345500D01*
X52664388Y-31339167D01*
X52856789Y-31313838D01*
X53091100Y-31251054D01*
X53315212Y-31158224D01*
X53525289Y-31036936D01*
X53717738Y-30889265D01*
X53889265Y-30717738D01*
X54036936Y-30525289D01*
X54158224Y-30315212D01*
X54251054Y-30091100D01*
X54313838Y-29856789D01*
X54345500Y-29616288D01*
X54345500Y-29373712D01*
X54313838Y-29133211D01*
X54251054Y-28898900D01*
X54158224Y-28674788D01*
X54036936Y-28464711D01*
X53889265Y-28272262D01*
X53889260Y-28272256D01*
X53717743Y-28100739D01*
X53717736Y-28100733D01*
X53525293Y-27953067D01*
X53525292Y-27953066D01*
X53525289Y-27953064D01*
X53315212Y-27831776D01*
X53233433Y-27797902D01*
X53091104Y-27738947D01*
X52856785Y-27676161D01*
X52616289Y-27644500D01*
X52616288Y-27644500D01*
X52373712Y-27644500D01*
X52373711Y-27644500D01*
X52133214Y-27676161D01*
X51898895Y-27738947D01*
X51674794Y-27831773D01*
X51674785Y-27831777D01*
X51464706Y-27953067D01*
X51272263Y-28100733D01*
X51272256Y-28100739D01*
X51100739Y-28272256D01*
X51100733Y-28272263D01*
X50953067Y-28464706D01*
X50953064Y-28464710D01*
X50953064Y-28464711D01*
X50936817Y-28492851D01*
X50831777Y-28674785D01*
X50831773Y-28674794D01*
X50738947Y-28898895D01*
X50676161Y-29133214D01*
X50644500Y-29373711D01*
X29355500Y-29373711D01*
X29323838Y-29133211D01*
X29261054Y-28898900D01*
X29236583Y-28839822D01*
X33559499Y-28839822D01*
X33568231Y-28883717D01*
X33568234Y-28883724D01*
X33601495Y-28933503D01*
X33601496Y-28933504D01*
X33651278Y-28966767D01*
X33651281Y-28966767D01*
X33651282Y-28966768D01*
X33695177Y-28975500D01*
X33695180Y-28975500D01*
X35224822Y-28975500D01*
X35268717Y-28966768D01*
X35268717Y-28966767D01*
X35268722Y-28966767D01*
X35318504Y-28933504D01*
X35351767Y-28883722D01*
X35360500Y-28839820D01*
X35360500Y-27981428D01*
X36310000Y-27981428D01*
X36310000Y-28168571D01*
X36346506Y-28352097D01*
X36346508Y-28352105D01*
X36418119Y-28524990D01*
X36418126Y-28525002D01*
X36433473Y-28547971D01*
X36433474Y-28547972D01*
X36777037Y-28204409D01*
X36794075Y-28267993D01*
X36859901Y-28382007D01*
X36952993Y-28475099D01*
X37067007Y-28540925D01*
X37130590Y-28557962D01*
X36787027Y-28901524D01*
X36787027Y-28901525D01*
X36810007Y-28916879D01*
X36982894Y-28988491D01*
X36982902Y-28988493D01*
X37166428Y-29024999D01*
X37166431Y-29025000D01*
X37353569Y-29025000D01*
X37353571Y-29024999D01*
X37537097Y-28988493D01*
X37537105Y-28988491D01*
X37709992Y-28916879D01*
X37709998Y-28916876D01*
X37732971Y-28901525D01*
X37732972Y-28901524D01*
X37389410Y-28557962D01*
X37452993Y-28540925D01*
X37567007Y-28475099D01*
X37660099Y-28382007D01*
X37725925Y-28267993D01*
X37742962Y-28204410D01*
X38086524Y-28547972D01*
X38086525Y-28547971D01*
X38101876Y-28524998D01*
X38101879Y-28524992D01*
X38173491Y-28352105D01*
X38173493Y-28352097D01*
X38209999Y-28168571D01*
X38210000Y-28168569D01*
X38210000Y-27986304D01*
X39099500Y-27986304D01*
X39099500Y-28163695D01*
X39134103Y-28337658D01*
X39134106Y-28337667D01*
X39201983Y-28501540D01*
X39201990Y-28501553D01*
X39300535Y-28649034D01*
X39300538Y-28649038D01*
X39425961Y-28774461D01*
X39425965Y-28774464D01*
X39573446Y-28873009D01*
X39573459Y-28873016D01*
X39679349Y-28916876D01*
X39737334Y-28940894D01*
X39737336Y-28940894D01*
X39737341Y-28940896D01*
X39911304Y-28975499D01*
X39911307Y-28975500D01*
X39911309Y-28975500D01*
X40088693Y-28975500D01*
X40088694Y-28975499D01*
X40146682Y-28963964D01*
X40262658Y-28940896D01*
X40262661Y-28940894D01*
X40262666Y-28940894D01*
X40426547Y-28873013D01*
X40574035Y-28774464D01*
X40699464Y-28649035D01*
X40798013Y-28501547D01*
X40865894Y-28337666D01*
X40900500Y-28163691D01*
X40900500Y-27986309D01*
X40900500Y-27986306D01*
X40900499Y-27986304D01*
X41839500Y-27986304D01*
X41839500Y-28163695D01*
X41874103Y-28337658D01*
X41874106Y-28337667D01*
X41941983Y-28501540D01*
X41941990Y-28501553D01*
X42040535Y-28649034D01*
X42040538Y-28649038D01*
X42165961Y-28774461D01*
X42165965Y-28774464D01*
X42313446Y-28873009D01*
X42313459Y-28873016D01*
X42419349Y-28916876D01*
X42477334Y-28940894D01*
X42477336Y-28940894D01*
X42477341Y-28940896D01*
X42651304Y-28975499D01*
X42651307Y-28975500D01*
X42651309Y-28975500D01*
X42828693Y-28975500D01*
X42828694Y-28975499D01*
X42886682Y-28963964D01*
X43002658Y-28940896D01*
X43002661Y-28940894D01*
X43002666Y-28940894D01*
X43166547Y-28873013D01*
X43314035Y-28774464D01*
X43439464Y-28649035D01*
X43538013Y-28501547D01*
X43605894Y-28337666D01*
X43640500Y-28163691D01*
X43640500Y-27986309D01*
X43640500Y-27986306D01*
X43640499Y-27986304D01*
X44579500Y-27986304D01*
X44579500Y-28163695D01*
X44614103Y-28337658D01*
X44614106Y-28337667D01*
X44681983Y-28501540D01*
X44681990Y-28501553D01*
X44780535Y-28649034D01*
X44780538Y-28649038D01*
X44905961Y-28774461D01*
X44905965Y-28774464D01*
X45053446Y-28873009D01*
X45053459Y-28873016D01*
X45159349Y-28916876D01*
X45217334Y-28940894D01*
X45217336Y-28940894D01*
X45217341Y-28940896D01*
X45391304Y-28975499D01*
X45391307Y-28975500D01*
X45391309Y-28975500D01*
X45568693Y-28975500D01*
X45568694Y-28975499D01*
X45626682Y-28963964D01*
X45742658Y-28940896D01*
X45742661Y-28940894D01*
X45742666Y-28940894D01*
X45906547Y-28873013D01*
X46054035Y-28774464D01*
X46179464Y-28649035D01*
X46278013Y-28501547D01*
X46345894Y-28337666D01*
X46380500Y-28163691D01*
X46380500Y-27986309D01*
X46380500Y-27986306D01*
X46380499Y-27986304D01*
X46345896Y-27812341D01*
X46345893Y-27812332D01*
X46278016Y-27648459D01*
X46278009Y-27648446D01*
X46179464Y-27500965D01*
X46179461Y-27500961D01*
X46054038Y-27375538D01*
X46054034Y-27375535D01*
X45906553Y-27276990D01*
X45906540Y-27276983D01*
X45742667Y-27209106D01*
X45742658Y-27209103D01*
X45568694Y-27174500D01*
X45568691Y-27174500D01*
X45391309Y-27174500D01*
X45391306Y-27174500D01*
X45217341Y-27209103D01*
X45217332Y-27209106D01*
X45053459Y-27276983D01*
X45053446Y-27276990D01*
X44905965Y-27375535D01*
X44905961Y-27375538D01*
X44780538Y-27500961D01*
X44780535Y-27500965D01*
X44681990Y-27648446D01*
X44681983Y-27648459D01*
X44614106Y-27812332D01*
X44614103Y-27812341D01*
X44579500Y-27986304D01*
X43640499Y-27986304D01*
X43605896Y-27812341D01*
X43605893Y-27812332D01*
X43538016Y-27648459D01*
X43538009Y-27648446D01*
X43439464Y-27500965D01*
X43439461Y-27500961D01*
X43314038Y-27375538D01*
X43314034Y-27375535D01*
X43166553Y-27276990D01*
X43166540Y-27276983D01*
X43002667Y-27209106D01*
X43002658Y-27209103D01*
X42828694Y-27174500D01*
X42828691Y-27174500D01*
X42651309Y-27174500D01*
X42651306Y-27174500D01*
X42477341Y-27209103D01*
X42477332Y-27209106D01*
X42313459Y-27276983D01*
X42313446Y-27276990D01*
X42165965Y-27375535D01*
X42165961Y-27375538D01*
X42040538Y-27500961D01*
X42040535Y-27500965D01*
X41941990Y-27648446D01*
X41941983Y-27648459D01*
X41874106Y-27812332D01*
X41874103Y-27812341D01*
X41839500Y-27986304D01*
X40900499Y-27986304D01*
X40865896Y-27812341D01*
X40865893Y-27812332D01*
X40798016Y-27648459D01*
X40798009Y-27648446D01*
X40699464Y-27500965D01*
X40699461Y-27500961D01*
X40574038Y-27375538D01*
X40574034Y-27375535D01*
X40426553Y-27276990D01*
X40426540Y-27276983D01*
X40262667Y-27209106D01*
X40262658Y-27209103D01*
X40088694Y-27174500D01*
X40088691Y-27174500D01*
X39911309Y-27174500D01*
X39911306Y-27174500D01*
X39737341Y-27209103D01*
X39737332Y-27209106D01*
X39573459Y-27276983D01*
X39573446Y-27276990D01*
X39425965Y-27375535D01*
X39425961Y-27375538D01*
X39300538Y-27500961D01*
X39300535Y-27500965D01*
X39201990Y-27648446D01*
X39201983Y-27648459D01*
X39134106Y-27812332D01*
X39134103Y-27812341D01*
X39099500Y-27986304D01*
X38210000Y-27986304D01*
X38210000Y-27981430D01*
X38209999Y-27981428D01*
X38173493Y-27797902D01*
X38173491Y-27797894D01*
X38101879Y-27625007D01*
X38086524Y-27602027D01*
X37742962Y-27945589D01*
X37725925Y-27882007D01*
X37660099Y-27767993D01*
X37567007Y-27674901D01*
X37452993Y-27609075D01*
X37389409Y-27592037D01*
X37732972Y-27248474D01*
X37732971Y-27248473D01*
X37710002Y-27233126D01*
X37709990Y-27233119D01*
X37537105Y-27161508D01*
X37537097Y-27161506D01*
X37353570Y-27125000D01*
X37166430Y-27125000D01*
X36982902Y-27161506D01*
X36982894Y-27161508D01*
X36810005Y-27233121D01*
X36787027Y-27248473D01*
X36787027Y-27248474D01*
X37130591Y-27592037D01*
X37067007Y-27609075D01*
X36952993Y-27674901D01*
X36859901Y-27767993D01*
X36794075Y-27882007D01*
X36777037Y-27945590D01*
X36433474Y-27602027D01*
X36433473Y-27602027D01*
X36418121Y-27625005D01*
X36346508Y-27797894D01*
X36346506Y-27797902D01*
X36310000Y-27981428D01*
X35360500Y-27981428D01*
X35360500Y-27310180D01*
X35360500Y-27310177D01*
X35351768Y-27266282D01*
X35351767Y-27266281D01*
X35351767Y-27266278D01*
X35318504Y-27216496D01*
X35307440Y-27209103D01*
X35268724Y-27183234D01*
X35268717Y-27183231D01*
X35224822Y-27174500D01*
X35224820Y-27174500D01*
X33695180Y-27174500D01*
X33695178Y-27174500D01*
X33651282Y-27183231D01*
X33651275Y-27183234D01*
X33601496Y-27216495D01*
X33601495Y-27216496D01*
X33568234Y-27266275D01*
X33568231Y-27266282D01*
X33559500Y-27310177D01*
X33559500Y-27310180D01*
X33559500Y-28839820D01*
X33559500Y-28839822D01*
X33559499Y-28839822D01*
X29236583Y-28839822D01*
X29168224Y-28674788D01*
X29046936Y-28464711D01*
X28899265Y-28272262D01*
X28899260Y-28272256D01*
X28727743Y-28100739D01*
X28727736Y-28100733D01*
X28535293Y-27953067D01*
X28535292Y-27953066D01*
X28535289Y-27953064D01*
X28325212Y-27831776D01*
X28243433Y-27797902D01*
X28101104Y-27738947D01*
X27866785Y-27676161D01*
X27626289Y-27644500D01*
X27626288Y-27644500D01*
X27383712Y-27644500D01*
X27383711Y-27644500D01*
X27143214Y-27676161D01*
X26908895Y-27738947D01*
X26684794Y-27831773D01*
X26684785Y-27831777D01*
X26474706Y-27953067D01*
X26282263Y-28100733D01*
X26282256Y-28100739D01*
X26110739Y-28272256D01*
X26110733Y-28272263D01*
X25963067Y-28464706D01*
X25963064Y-28464710D01*
X25963064Y-28464711D01*
X25946817Y-28492851D01*
X25841777Y-28674785D01*
X25841773Y-28674794D01*
X25748947Y-28898895D01*
X25686161Y-29133214D01*
X25654500Y-29373711D01*
X21000500Y-29373711D01*
X21000500Y-21124500D01*
X21020185Y-21057461D01*
X21072989Y-21011706D01*
X21124500Y-21000500D01*
X58875500Y-21000500D01*
X58942539Y-21020185D01*
G37*
%TD.AperFunction*%
%TD*%
M02*
