M48
; DRILL file {KiCad 9.0.6} date 2025-11-16T23:30:32+0100
; FORMAT={-:-/ absolute / metric / decimal}
; #@! TF.CreationDate,2025-11-16T23:30:32+01:00
; #@! TF.GenerationSoftware,Kicad,Pcbnew,9.0.6
; #@! TF.FileFunction,Plated,1,4,PTH
FMAT,2
METRIC
; #@! TA.AperFunction,Plated,PTH,ViaDrill
T1C0.200
; #@! TA.AperFunction,Plated,PTH,ComponentDrill
T2C0.650
; #@! TA.AperFunction,Plated,PTH,ComponentDrill
T3C0.737
; #@! TA.AperFunction,Plated,PTH,ComponentDrill
T4C1.000
; #@! TA.AperFunction,Plated,PTH,ComponentDrill
T5C1.400
; #@! TA.AperFunction,Plated,PTH,ComponentDrill
T6C1.500
; #@! TA.AperFunction,Plated,PTH,ComponentDrill
T7C2.700
%
G90
G05
T1
X22.95Y-53.325
X22.975Y-38.075
X22.975Y-87.925
X23.0Y-24.0
X23.0Y-26.0
X23.0Y-28.0
X23.0Y-30.0
X23.0Y-32.0
X23.0Y-34.0
X23.0Y-36.0
X23.0Y-41.875
X23.0Y-44.0
X23.0Y-46.0
X23.0Y-48.0
X23.0Y-50.0
X23.0Y-52.0
X23.0Y-68.0
X23.0Y-70.0
X23.0Y-72.0
X23.0Y-74.0
X23.0Y-76.0
X23.0Y-78.0
X23.0Y-80.0
X23.0Y-82.0
X23.0Y-84.0
X23.0Y-86.0
X23.0Y-94.0
X23.0Y-96.0
X23.0Y-98.0
X23.0Y-100.0
X23.0Y-102.0
X23.0Y-104.0
X23.0Y-106.0
X23.0Y-108.0
X23.0Y-110.0
X23.0Y-112.0
X23.025Y-66.925
X23.025Y-92.2
X23.025Y-113.2
X24.0Y-23.0
X26.0Y-23.0
X26.95Y-56.925
X26.95Y-116.975
X27.1Y-62.975
X27.35Y-95.275
X27.525Y-86.55
X28.0Y-23.0
X28.0Y-117.0
X28.3Y-57.0
X28.528Y-63.0
X29.025Y-79.15
X30.0Y-23.0
X30.0Y-117.0
X30.28Y-95.275
X30.35Y-86.55
X30.387Y-80.513
X30.4Y-57.0
X30.4Y-91.9
X30.4Y-97.8
X30.587Y-63.0
X31.175Y-100.025
X31.175Y-101.075
X31.3Y-88.1
X31.775Y-81.9
X32.0Y-23.0
X32.0Y-117.0
X32.1Y-76.7
X32.1Y-91.9
X32.5Y-57.0
X32.5Y-87.1
X32.6Y-97.7
X32.646Y-63.0
X34.0Y-23.0
X34.0Y-77.7
X34.0Y-117.0
X34.2Y-85.5
X34.4Y-73.9
X34.6Y-57.0
X34.704Y-63.0
X35.1Y-39.225
X35.1Y-40.775
X35.174Y-72.974
X35.175Y-64.875
X35.175Y-65.875
X35.5Y-98.9
X35.5Y-102.5
X35.6Y-75.1
X35.6Y-100.4
X35.7Y-40.775
X35.725Y-39.225
X35.75Y-80.445
X35.775Y-117.05
X35.874Y-72.374
X36.0Y-23.0
X36.0Y-86.0
X36.0Y-87.0
X36.0Y-88.0
X36.0Y-89.0
X36.0Y-90.0
X36.0Y-91.0
X36.0Y-92.0
X36.0Y-93.075
X36.32Y-39.25
X36.32Y-40.75
X36.5Y-83.2
X36.55Y-65.875
X36.7Y-57.0
X36.763Y-63.0
X36.902Y-76.367
X36.95Y-94.0
X36.975Y-93.075
X37.0Y-86.0
X37.0Y-87.0
X37.0Y-88.0
X37.0Y-89.0
X37.0Y-90.0
X37.0Y-91.0
X37.0Y-92.0
X37.05Y-39.175
X37.075Y-40.8
X37.174Y-68.599
X37.425Y-38.35
X37.635Y-41.939
X37.65Y-69.075
X37.65Y-99.225
X37.7Y-100.3
X37.7Y-101.4
X37.716Y-40.999
X37.85Y-104.35
X37.85Y-105.75
X37.875Y-39.175
X37.925Y-88.0
X37.925Y-89.0
X37.925Y-90.0
X37.925Y-91.0
X37.925Y-92.0
X37.95Y-107.593
X38.0Y-23.0
X38.0Y-86.0
X38.0Y-87.0
X38.0Y-102.4
X38.061Y-37.635
X38.15Y-94.0
X38.154Y-108.601
X38.175Y-93.075
X38.245Y-114.401
X38.35Y-42.575
X38.375Y-41.15
X38.375Y-98.6
X38.538Y-113.666
X38.593Y-112.878
X38.7Y-38.8
X38.723Y-109.458
X38.8Y-57.0
X38.8Y-100.5
X38.822Y-63.0
X38.827Y-114.935
X38.887Y-37.152
X38.975Y-41.1
X39.0Y-86.0
X39.0Y-87.0
X39.0Y-117.025
X39.1Y-112.35
X39.15Y-92.35
X39.15Y-94.0
X39.15Y-95.825
X39.15Y-96.75
X39.175Y-93.15
X39.219Y-115.622
X39.226Y-42.959
X39.25Y-110.55
X39.275Y-111.6
X39.3Y-98.6
X39.35Y-42.25
X39.375Y-39.05
X39.45Y-107.557
X39.45Y-102.4
X39.45Y-106.7
X39.5Y-103.6
X39.5Y-104.8
X39.5Y-105.75
X39.774Y-74.874
X39.809Y-108.424
X39.821Y-36.947
X39.924Y-64.124
X39.95Y-100.5
X40.0Y-23.0
X40.0Y-39.3
X40.0Y-40.0
X40.0Y-90.0
X40.0Y-115.5
X40.074Y-67.774
X40.179Y-43.053
X40.35Y-69.5
X40.5Y-102.4
X40.502Y-109.467
X40.65Y-39.05
X40.65Y-42.3
X40.674Y-73.874
X40.675Y-68.8
X40.675Y-95.225
X40.7Y-93.95
X40.75Y-92.3
X40.75Y-110.55
X40.75Y-111.625
X40.774Y-37.041
X40.781Y-115.622
X40.8Y-98.65
X40.825Y-97.825
X40.825Y-100.475
X40.85Y-96.975
X40.85Y-99.575
X40.85Y-101.525
X40.881Y-63.0
X40.9Y-57.0
X40.9Y-112.35
X40.975Y-117.025
X41.0Y-86.0
X41.0Y-87.0
X41.0Y-90.0
X41.075Y-72.075
X41.113Y-42.848
X41.138Y-41.341
X41.173Y-114.935
X41.325Y-94.925
X41.407Y-112.878
X41.449Y-67.799
X41.45Y-38.9
X41.462Y-113.666
X41.575Y-96.3
X41.65Y-37.425
X41.75Y-42.475
X41.755Y-114.401
X41.775Y-69.5
X41.8Y-93.8
X41.825Y-92.3
X41.95Y-41.65
X42.0Y-23.0
X42.0Y-86.0
X42.0Y-87.0
X42.15Y-88.0
X42.15Y-89.0
X42.15Y-90.0
X42.15Y-91.0
X42.15Y-94.6
X42.17Y-77.695
X42.2Y-95.8
X42.225Y-72.025
X42.25Y-39.175
X42.25Y-68.95
X42.3Y-97.3
X42.3Y-98.1
X42.325Y-96.65
X42.365Y-38.061
X42.4Y-99.131
X42.425Y-42.175
X42.479Y-99.913
X42.525Y-40.225
X42.674Y-64.174
X42.674Y-73.374
X42.725Y-93.85
X42.85Y-94.875
X42.873Y-101.013
X42.907Y-76.957
X42.925Y-42.625
X42.94Y-63.0
X43.0Y-39.55
X43.0Y-40.625
X43.0Y-57.0
X43.0Y-86.0
X43.0Y-87.0
X43.0Y-88.0
X43.0Y-89.0
X43.0Y-90.0
X43.0Y-91.0
X43.268Y-78.718
X43.35Y-95.325
X43.45Y-101.8
X43.5Y-41.2
X43.5Y-82.6
X43.5Y-95.9
X43.505Y-43.295
X43.575Y-76.25
X43.6Y-99.102
X43.6Y-97.4
X43.7Y-100.1
X43.799Y-67.599
X43.8Y-102.6
X43.825Y-93.85
X43.95Y-83.05
X44.0Y-23.0
X44.0Y-75.8
X44.0Y-86.0
X44.0Y-87.0
X44.0Y-88.0
X44.0Y-89.0
X44.0Y-90.0
X44.0Y-91.0
X44.1Y-103.4
X44.104Y-41.8
X44.118Y-77.868
X44.175Y-94.825
X44.248Y-44.052
X44.25Y-117.0
X44.35Y-95.825
X44.441Y-101.133
X44.6Y-93.875
X44.674Y-66.949
X44.674Y-73.374
X44.775Y-92.1
X44.975Y-44.8
X44.98Y-77.005
X44.999Y-63.0
X45.0Y-103.7
X45.1Y-57.0
X45.124Y-67.399
X45.2Y-101.5
X45.3Y-95.1
X45.399Y-69.249
X45.4Y-94.1
X45.425Y-42.95
X45.7Y-103.5
X45.855Y-76.13
X45.9Y-83.0
X46.0Y-23.0
X46.0Y-102.25
X46.0Y-117.0
X46.05Y-43.575
X46.1Y-102.975
X46.274Y-64.949
X46.325Y-46.075
X46.337Y-72.037
X46.35Y-100.1
X46.6Y-44.175
X46.674Y-73.374
X46.7Y-46.475
X46.7Y-83.7
X46.775Y-102.45
X46.849Y-64.949
X46.9Y-72.6
X46.956Y-66.117
X46.975Y-99.55
X47.0Y-70.1
X47.057Y-63.0
X47.115Y-46.905
X47.2Y-57.0
X47.2Y-101.9
X47.225Y-44.895
X47.432Y-47.737
X47.5Y-84.3
X47.5Y-101.1
X47.6Y-48.525
X47.7Y-98.7
X47.725Y-45.4
X48.0Y-23.0
X48.0Y-117.0
X48.064Y-49.191
X48.1Y-100.45
X48.175Y-45.845
X48.2Y-90.825
X48.5Y-85.1
X48.55Y-98.125
X48.6Y-99.875
X48.825Y-49.4
X48.849Y-67.799
X48.849Y-69.899
X49.052Y-46.16
X49.116Y-63.0
X49.275Y-81.35
X49.3Y-57.0
X49.325Y-99.1
X49.5Y-91.875
X49.6Y-71.4
X49.618Y-49.496
X49.85Y-46.325
X50.0Y-23.0
X50.0Y-117.0
X50.1Y-96.9
X50.1Y-97.44
X50.25Y-86.1
X50.275Y-48.925
X50.375Y-80.825
X50.488Y-46.829
X50.675Y-47.7
X50.753Y-48.391
X51.175Y-63.0
X51.4Y-57.0
X51.71Y-79.969
X51.71Y-81.021
X51.8Y-71.15
X51.825Y-86.1
X52.0Y-23.0
X52.0Y-117.0
X52.167Y-80.564
X52.875Y-63.025
X53.225Y-57.0
X53.225Y-117.025
X53.6Y-69.6
X53.625Y-72.85
X54.0Y-23.0
X55.2Y-71.1
X56.0Y-23.0
X56.95Y-104.025
X56.975Y-86.9
X57.0Y-24.0
X57.0Y-26.0
X57.0Y-28.0
X57.0Y-30.0
X57.0Y-32.0
X57.0Y-34.0
X57.0Y-36.0
X57.0Y-44.0
X57.0Y-46.0
X57.0Y-48.0
X57.0Y-50.0
X57.0Y-52.0
X57.0Y-53.2
X57.0Y-69.111
X57.0Y-71.148
X57.0Y-73.185
X57.0Y-75.3
X57.0Y-77.259
X57.0Y-79.296
X57.0Y-81.333
X57.0Y-83.37
X57.0Y-85.407
X57.0Y-88.075
X57.0Y-91.825
X57.0Y-93.556
X57.0Y-95.593
X57.0Y-97.63
X57.0Y-99.925
X57.0Y-101.704
X57.0Y-105.778
X57.0Y-107.815
X57.0Y-109.852
X57.0Y-111.889
X57.025Y-38.075
X57.025Y-42.325
X57.025Y-67.35
X57.075Y-113.325
T2
X45.0Y-100.0
X45.0Y-102.54
X46.27Y-101.27
T3
X38.73Y-40.0
X40.0Y-41.27
X41.27Y-40.0
T4
X25.0Y-99.88
X25.0Y-102.42
X25.0Y-104.96
X25.0Y-107.5
X32.5Y-46.0
X32.5Y-48.54
X34.46Y-28.075
X35.89Y-30.915
X37.26Y-28.075
X38.63Y-30.915
X40.0Y-28.075
X41.37Y-30.915
X42.74Y-28.075
X44.11Y-30.915
X45.48Y-28.075
X55.0Y-100.0
X55.0Y-102.54
X55.0Y-105.08
T5
X40.0Y-114.0
X49.07Y-47.8
T6
X37.45Y-111.45
X37.45Y-116.55
X42.55Y-111.45
X42.55Y-116.55
X45.464Y-47.8
X49.07Y-44.194
X49.07Y-51.406
X52.676Y-47.8
T7
X25.0Y-40.0
X25.0Y-55.0
X25.0Y-65.0
X25.0Y-90.0
X25.0Y-115.0
X55.0Y-40.0
X55.0Y-55.0
X55.0Y-65.0
X55.0Y-90.0
X55.0Y-115.0
M30
