%TF.GenerationSoftware,KiCad,Pcbnew,9.0.6*%
%TF.CreationDate,2025-11-16T23:30:30+01:00*%
%TF.ProjectId,ASK,41534b2e-6b69-4636-9164-5f7063625858,rev?*%
%TF.SameCoordinates,Original*%
%TF.FileFunction,Paste,Top*%
%TF.FilePolarity,Positive*%
%FSLAX46Y46*%
G04 Gerber Fmt 4.6, Leading zero omitted, Abs format (unit mm)*
G04 Created by KiCad (PCBNEW 9.0.6) date 2025-11-16 23:30:30*
%MOMM*%
%LPD*%
G01*
G04 APERTURE LIST*
G04 Aperture macros list*
%AMRoundRect*
0 Rectangle with rounded corners*
0 $1 Rounding radius*
0 $2 $3 $4 $5 $6 $7 $8 $9 X,Y pos of 4 corners*
0 Add a 4 corners polygon primitive as box body*
4,1,4,$2,$3,$4,$5,$6,$7,$8,$9,$2,$3,0*
0 Add four circle primitives for the rounded corners*
1,1,$1+$1,$2,$3*
1,1,$1+$1,$4,$5*
1,1,$1+$1,$6,$7*
1,1,$1+$1,$8,$9*
0 Add four rect primitives between the rounded corners*
20,1,$1+$1,$2,$3,$4,$5,0*
20,1,$1+$1,$4,$5,$6,$7,0*
20,1,$1+$1,$6,$7,$8,$9,0*
20,1,$1+$1,$8,$9,$2,$3,0*%
G04 Aperture macros list end*
%ADD10RoundRect,0.140000X-0.219203X-0.021213X-0.021213X-0.219203X0.219203X0.021213X0.021213X0.219203X0*%
%ADD11RoundRect,0.140000X-0.140000X-0.170000X0.140000X-0.170000X0.140000X0.170000X-0.140000X0.170000X0*%
%ADD12RoundRect,0.140000X0.140000X0.170000X-0.140000X0.170000X-0.140000X-0.170000X0.140000X-0.170000X0*%
%ADD13RoundRect,0.140000X-0.170000X0.140000X-0.170000X-0.140000X0.170000X-0.140000X0.170000X0.140000X0*%
%ADD14RoundRect,0.140000X0.219203X0.021213X0.021213X0.219203X-0.219203X-0.021213X-0.021213X-0.219203X0*%
%ADD15RoundRect,0.140000X0.170000X-0.140000X0.170000X0.140000X-0.170000X0.140000X-0.170000X-0.140000X0*%
%ADD16RoundRect,0.135000X0.035355X-0.226274X0.226274X-0.035355X-0.035355X0.226274X-0.226274X0.035355X0*%
%ADD17RoundRect,0.075000X-0.075000X0.650000X-0.075000X-0.650000X0.075000X-0.650000X0.075000X0.650000X0*%
%ADD18R,0.609600X1.803400*%
%ADD19R,0.584200X1.143000*%
%ADD20RoundRect,0.150000X0.150000X-0.512500X0.150000X0.512500X-0.150000X0.512500X-0.150000X-0.512500X0*%
%ADD21RoundRect,0.135000X-0.135000X-0.185000X0.135000X-0.185000X0.135000X0.185000X-0.135000X0.185000X0*%
%ADD22RoundRect,0.135000X0.135000X0.185000X-0.135000X0.185000X-0.135000X-0.185000X0.135000X-0.185000X0*%
%ADD23RoundRect,0.225000X0.225000X0.375000X-0.225000X0.375000X-0.225000X-0.375000X0.225000X-0.375000X0*%
%ADD24R,1.425000X0.300000*%
%ADD25R,1.680000X1.880000*%
%ADD26R,1.450000X0.300000*%
%ADD27R,0.500000X0.580000*%
%ADD28R,0.800000X0.580000*%
%ADD29RoundRect,0.147500X-0.147500X-0.172500X0.147500X-0.172500X0.147500X0.172500X-0.147500X0.172500X0*%
%ADD30RoundRect,0.140000X-0.021213X0.219203X-0.219203X0.021213X0.021213X-0.219203X0.219203X-0.021213X0*%
%ADD31RoundRect,0.147500X-0.017678X0.226274X-0.226274X0.017678X0.017678X-0.226274X0.226274X-0.017678X0*%
%ADD32RoundRect,0.147500X-0.172500X0.147500X-0.172500X-0.147500X0.172500X-0.147500X0.172500X0.147500X0*%
%ADD33RoundRect,0.147500X0.147500X0.172500X-0.147500X0.172500X-0.147500X-0.172500X0.147500X-0.172500X0*%
G04 APERTURE END LIST*
D10*
%TO.C,C1*%
X45670000Y-41500000D03*
X46348822Y-42178822D03*
%TD*%
D11*
%TO.C,C7*%
X52080000Y-83050000D03*
X53040000Y-83050000D03*
%TD*%
D12*
%TO.C,C23*%
X47234293Y-67274293D03*
X46274293Y-67274293D03*
%TD*%
D13*
%TO.C,C27*%
X36570000Y-80445000D03*
X36570000Y-81405000D03*
%TD*%
D11*
%TO.C,C102*%
X39030000Y-83050000D03*
X39990000Y-83050000D03*
%TD*%
D14*
%TO.C,C2*%
X45573822Y-44303822D03*
X44895000Y-43625000D03*
%TD*%
D11*
%TO.C,C26*%
X39995000Y-85100000D03*
X40955000Y-85100000D03*
%TD*%
D15*
%TO.C,C22*%
X37274293Y-72804293D03*
X37274293Y-71844293D03*
%TD*%
D16*
%TO.C,R2*%
X45498752Y-45671248D03*
X46220000Y-44950000D03*
%TD*%
D17*
%TO.C,U3*%
X52060000Y-73910000D03*
X51560000Y-73910000D03*
X51060000Y-73910000D03*
X50560000Y-73910000D03*
X50060000Y-73910000D03*
X50060000Y-78310000D03*
X50560000Y-78310000D03*
X51060000Y-78310000D03*
X51560000Y-78310000D03*
X52060000Y-78310000D03*
%TD*%
D18*
%TO.C,D1*%
X38900000Y-90901700D03*
D19*
X40000000Y-91231900D03*
X41100000Y-91231900D03*
X41100000Y-88768100D03*
X40000000Y-88768100D03*
X38900000Y-88768100D03*
%TD*%
D15*
%TO.C,C20*%
X37549293Y-64949293D03*
X37549293Y-63989293D03*
%TD*%
D20*
%TO.C,U4*%
X38090000Y-80445000D03*
X39990000Y-80445000D03*
X39040000Y-78170000D03*
%TD*%
D15*
%TO.C,C35*%
X43750000Y-93100000D03*
X43750000Y-92140000D03*
%TD*%
D13*
%TO.C,C31*%
X38700000Y-104800000D03*
X38700000Y-105760000D03*
%TD*%
D21*
%TO.C,R6*%
X51060000Y-81840000D03*
X52080000Y-81840000D03*
%TD*%
D22*
%TO.C,R23*%
X33000000Y-103325000D03*
X31980000Y-103325000D03*
%TD*%
D23*
%TO.C,D2*%
X34725000Y-97650000D03*
X31425000Y-97650000D03*
%TD*%
D10*
%TO.C,C4*%
X49300000Y-98240000D03*
X49978822Y-98918822D03*
%TD*%
D15*
%TO.C,C29*%
X38075000Y-97650000D03*
X38075000Y-96690000D03*
%TD*%
%TO.C,C19*%
X35775000Y-104280000D03*
X35775000Y-103320000D03*
%TD*%
D11*
%TO.C,C9*%
X48710000Y-80170000D03*
X49670000Y-80170000D03*
%TD*%
D24*
%TO.C,U1*%
X39049293Y-64949293D03*
X39049293Y-65449293D03*
X39049293Y-65949293D03*
X39049293Y-66449293D03*
X39049293Y-66949293D03*
X43473293Y-66949293D03*
X43473293Y-66449293D03*
X43473293Y-65949293D03*
X43473293Y-65449293D03*
X43473293Y-64949293D03*
D25*
X41261293Y-65949293D03*
%TD*%
D21*
%TO.C,R101*%
X37680000Y-106700000D03*
X38700000Y-106700000D03*
%TD*%
D26*
%TO.C,U2*%
X43499293Y-71274293D03*
X43499293Y-70774293D03*
X43499293Y-70274293D03*
X43499293Y-69774293D03*
X43499293Y-69274293D03*
X39049293Y-69274293D03*
X39049293Y-69774293D03*
X39049293Y-70274293D03*
X39049293Y-70774293D03*
X39049293Y-71274293D03*
%TD*%
D27*
%TO.C,Q1*%
X40000000Y-99490000D03*
D28*
X38850000Y-99490000D03*
D27*
X38700000Y-101510000D03*
X40000000Y-101510000D03*
%TD*%
D21*
%TO.C,R102*%
X38980000Y-94760000D03*
X40000000Y-94760000D03*
%TD*%
D29*
%TO.C,L5*%
X37730000Y-103325000D03*
X38700000Y-103325000D03*
%TD*%
D30*
%TO.C,C33*%
X40850000Y-96050000D03*
%TD*%
D13*
%TO.C,C32*%
X40000000Y-95740000D03*
X40000000Y-96700000D03*
%TD*%
D29*
%TO.C,L2*%
X34605000Y-40000000D03*
X35575000Y-40000000D03*
%TD*%
D13*
%TO.C,C18*%
X36775000Y-96690000D03*
X36775000Y-97650000D03*
%TD*%
%TO.C,C30*%
X36800000Y-103325000D03*
X36800000Y-104285000D03*
%TD*%
D31*
%TO.C,L1*%
X44905894Y-42264106D03*
X44220000Y-42950000D03*
%TD*%
D13*
%TO.C,C3*%
X33110000Y-40000000D03*
X33110000Y-40960000D03*
%TD*%
D32*
%TO.C,L3*%
X40000000Y-86105000D03*
X40000000Y-87075000D03*
%TD*%
D33*
%TO.C,L6*%
X40970000Y-93120000D03*
X40000000Y-93120000D03*
%TD*%
D22*
%TO.C,R103*%
X44020000Y-98100000D03*
X43000000Y-98100000D03*
%TD*%
D15*
%TO.C,C28*%
X42660000Y-93120000D03*
X42660000Y-92160000D03*
%TD*%
D29*
%TO.C,L4*%
X39030000Y-97650000D03*
X40000000Y-97650000D03*
%TD*%
D33*
%TO.C,L8*%
X43970000Y-96633814D03*
X43000000Y-96633814D03*
%TD*%
D13*
%TO.C,C21*%
X45125293Y-71149293D03*
X45125293Y-72109293D03*
%TD*%
D11*
%TO.C,C25*%
X39995000Y-84050000D03*
X40955000Y-84050000D03*
%TD*%
D15*
%TO.C,C24*%
X36474293Y-64948586D03*
X36474293Y-63988586D03*
%TD*%
D31*
%TO.C,L7*%
X48625894Y-98914106D03*
X47940000Y-99600000D03*
%TD*%
M02*
