%TF.GenerationSoftware,KiCad,Pcbnew,9.0.6*%
%TF.CreationDate,2025-11-16T23:30:30+01:00*%
%TF.ProjectId,ASK,41534b2e-6b69-4636-9164-5f7063625858,rev?*%
%TF.SameCoordinates,Original*%
%TF.FileFunction,Soldermask,Bot*%
%TF.FilePolarity,Negative*%
%FSLAX46Y46*%
G04 Gerber Fmt 4.6, Leading zero omitted, Abs format (unit mm)*
G04 Created by KiCad (PCBNEW 9.0.6) date 2025-11-16 23:30:30*
%MOMM*%
%LPD*%
G01*
G04 APERTURE LIST*
G04 Aperture macros list*
%AMRoundRect*
0 Rectangle with rounded corners*
0 $1 Rounding radius*
0 $2 $3 $4 $5 $6 $7 $8 $9 X,Y pos of 4 corners*
0 Add a 4 corners polygon primitive as box body*
4,1,4,$2,$3,$4,$5,$6,$7,$8,$9,$2,$3,0*
0 Add four circle primitives for the rounded corners*
1,1,$1+$1,$2,$3*
1,1,$1+$1,$4,$5*
1,1,$1+$1,$6,$7*
1,1,$1+$1,$8,$9*
0 Add four rect primitives between the rounded corners*
20,1,$1+$1,$2,$3,$4,$5,0*
20,1,$1+$1,$4,$5,$6,$7,0*
20,1,$1+$1,$6,$7,$8,$9,0*
20,1,$1+$1,$8,$9,$2,$3,0*%
G04 Aperture macros list end*
%ADD10C,4.700000*%
%ADD11C,1.244600*%
%ADD12RoundRect,0.101600X-0.596000X0.596000X-0.596000X-0.596000X0.596000X-0.596000X0.596000X0.596000X0*%
%ADD13C,1.192000*%
%ADD14C,3.200000*%
%ADD15R,1.500000X1.500000*%
%ADD16C,1.500000*%
%ADD17R,1.700000X1.700000*%
%ADD18C,1.700000*%
%ADD19C,2.100000*%
%ADD20C,2.250000*%
G04 APERTURE END LIST*
D10*
%TO.C,H9*%
X25000000Y-115000000D03*
%TD*%
%TO.C,H6*%
X55000000Y-65000000D03*
%TD*%
%TO.C,H8*%
X55000000Y-90000000D03*
%TD*%
%TO.C,H5*%
X25000000Y-65000000D03*
%TD*%
%TO.C,H1*%
X25000000Y-40000000D03*
%TD*%
%TO.C,H10*%
X55000000Y-115000000D03*
%TD*%
%TO.C,H2*%
X55000000Y-40000000D03*
%TD*%
%TO.C,H7*%
X25000000Y-90000000D03*
%TD*%
%TO.C,H4*%
X55000000Y-55000000D03*
%TD*%
D11*
%TO.C,LASER1*%
X41270000Y-40000000D03*
X40000000Y-41270000D03*
X38730000Y-40000000D03*
%TD*%
D10*
%TO.C,H3*%
X25000000Y-55000000D03*
%TD*%
D12*
%TO.C,D3*%
X45000000Y-100000000D03*
D13*
X46270000Y-101270000D03*
X45000000Y-102540000D03*
%TD*%
D14*
%TO.C,J3*%
X52495000Y-29495000D03*
X27505000Y-29495000D03*
D15*
X34460000Y-28075000D03*
D16*
X35890000Y-30915000D03*
X37260000Y-28075000D03*
X38630000Y-30915000D03*
X40000000Y-28075000D03*
X41370000Y-30915000D03*
X42740000Y-28075000D03*
X44110000Y-30915000D03*
X45480000Y-28075000D03*
%TD*%
D17*
%TO.C,J5*%
X32500000Y-46000000D03*
D18*
X32500000Y-48540000D03*
%TD*%
D19*
%TO.C,J1*%
X49070000Y-47800000D03*
D20*
X49070000Y-51406245D03*
X45463755Y-47800000D03*
X49070000Y-44193755D03*
X52676245Y-47800000D03*
%TD*%
D19*
%TO.C,J2*%
X40000000Y-114000000D03*
D20*
X42550000Y-116550000D03*
X37450000Y-116550000D03*
X37450000Y-111450000D03*
X42550000Y-111450000D03*
%TD*%
D17*
%TO.C,J6*%
X25000000Y-107500000D03*
D18*
X25000000Y-104960000D03*
X25000000Y-102420000D03*
X25000000Y-99880000D03*
%TD*%
D17*
%TO.C,J4*%
X55000000Y-100000000D03*
D18*
X55000000Y-102540000D03*
X55000000Y-105080000D03*
%TD*%
M02*
